<svg width="20" height="20" viewBox="0 0 20 20" fill="none" xmlns="http://www.w3.org/2000/svg">
<g clip-path="url(#clip0_2280_214)">
<path d="M19.6017 7.36206H19.3347C19.0746 6.04233 17.7405 3.7187 17.1498 2.73452C17.4268 2.54405 17.6088 2.2251 17.6088 1.86436C17.6088 1.28233 17.1352 0.808777 16.5532 0.808777C15.9712 0.808777 15.4977 1.28229 15.4977 1.86436C15.4977 2.2251 15.6797 2.54405 15.9566 2.73452C15.3661 3.7187 14.0319 6.04233 13.7718 7.36206H13.5048C13.2848 7.36206 13.1064 7.54042 13.1064 7.76046C13.1064 9.66104 14.6527 11.2073 16.5533 11.2073C18.4539 11.2073 20.0001 9.66104 20.0001 7.76046C20.0001 7.54042 19.8217 7.36206 19.6017 7.36206ZM16.5532 1.60561C16.6959 1.60561 16.812 1.72171 16.812 1.86436C16.812 2.00702 16.6959 2.12307 16.5532 2.12307C16.4106 2.12307 16.2945 2.00702 16.2945 1.86436C16.2945 1.72171 16.4105 1.60561 16.5532 1.60561ZM16.5526 3.28921C17.2268 4.42718 18.2679 6.32272 18.524 7.36206H14.5837C14.8255 6.38893 15.7622 4.61757 16.5526 3.28921ZM16.5532 10.4105C15.2274 10.4105 14.1258 9.43178 13.9331 8.15885H19.1734C18.9807 9.43178 17.8791 10.4105 16.5532 10.4105Z" fill="#D3D3D3"/>
<path d="M13.5462 16.9013H12.4929V15.8895C12.4929 15.6695 12.3145 15.4911 12.0945 15.4911H11.0827V4.3621C11.3433 4.10452 11.5111 3.75331 11.5306 3.36359L13.2152 3.00109C13.4303 2.9548 13.5672 2.74288 13.5209 2.52777C13.4746 2.31265 13.2627 2.17593 13.0476 2.2221L11.359 2.5855C11.1057 2.10456 10.601 1.7757 10.0207 1.7757C9.21707 1.7757 8.55816 2.40601 8.5118 3.1982L4.2993 4.10468C4.10711 3.84183 3.79668 3.67066 3.44687 3.67066C2.86484 3.67066 2.39129 4.14417 2.39129 4.72624C2.39129 5.08699 2.57332 5.40597 2.85027 5.5964C2.25965 6.58058 0.925547 8.90421 0.66543 10.2239H0.398477C0.178359 10.2239 0 10.4023 0 10.6223C0 12.5229 1.54625 14.0692 3.44684 14.0692C5.34742 14.0692 6.89367 12.5229 6.89367 10.6223C6.89367 10.4023 6.71531 10.2239 6.49527 10.2239H6.22832C5.9682 8.90417 4.63406 6.58058 4.04348 5.5964C4.28074 5.43324 4.44816 5.17577 4.49133 4.87847L8.67652 3.97788C8.75016 4.12062 8.84559 4.25031 8.95875 4.36218V15.4912H7.94699C7.72695 15.4912 7.54859 15.6696 7.54859 15.8896V16.9014H6.49531C6.27527 16.9014 6.09691 17.0798 6.09691 17.2998V18.7928C6.09691 19.0129 6.27527 19.1912 6.49531 19.1912H13.5462C13.7662 19.1912 13.9446 19.0129 13.9446 18.7928V17.2997C13.9446 17.0797 13.7662 16.9013 13.5462 16.9013ZM3.44684 4.46741C3.58949 4.46741 3.70559 4.58351 3.70559 4.72616C3.70559 4.86882 3.58949 4.98488 3.44684 4.98488C3.30418 4.98488 3.18809 4.86882 3.18809 4.72616C3.18809 4.58351 3.30418 4.46741 3.44684 4.46741ZM3.44684 13.2723C2.12098 13.2723 1.01941 12.2936 0.82668 11.0207H6.06699C5.87426 12.2936 4.7727 13.2723 3.44684 13.2723ZM5.41762 10.2239H1.4773C1.7191 9.25073 2.65586 7.47937 3.44625 6.15101C4.12039 7.28894 5.16152 9.18448 5.41762 10.2239ZM10.0207 2.57241C10.415 2.57241 10.7357 2.89312 10.7357 3.28738C10.7357 3.68163 10.415 4.00234 10.0207 4.00234C9.62652 4.00234 9.30578 3.68163 9.30578 3.28738C9.30578 2.89312 9.62648 2.57241 10.0207 2.57241ZM10.2859 4.77546V15.4912H9.75555V4.77542C9.84172 4.79077 9.93023 4.79921 10.0208 4.79921C10.1113 4.79921 10.1998 4.79074 10.2859 4.77546ZM8.34535 16.2879H11.6961V16.9013H8.34535V16.2879ZM13.1478 18.3944H6.89371V17.6981H13.1478V18.3944Z" fill="#D3D3D3"/>
<path d="M15.0554 2.2222C15.0091 2.00708 14.7971 1.87024 14.582 1.91653L14.2917 1.97899C14.0766 2.02528 13.9398 2.2372 13.986 2.45231C14.0263 2.63919 14.1915 2.76696 14.3752 2.76696C14.403 2.76696 14.4312 2.76407 14.4594 2.75798L14.7497 2.69552C14.9648 2.64923 15.1017 2.43731 15.0554 2.2222Z" fill="#D3D3D3"/>
</g>
<defs>
<clipPath id="clip0_2280_214">
<rect width="20" height="20" fill="white"/>
</clipPath>
</defs>
</svg>
