<svg width="27" height="26" viewBox="0 0 27 26" fill="none" xmlns="http://www.w3.org/2000/svg">
<g clip-path="url(#clip0_2391_7631)">
<path d="M20.863 18.4141C19.1279 18.4141 17.7164 19.8684 17.7164 21.656C17.7164 23.4435 19.128 24.8979 20.863 24.8979C22.598 24.8979 24.0095 23.4435 24.0095 21.656C24.0095 19.8684 22.598 18.4141 20.863 18.4141ZM20.863 22.9527C20.1689 22.9527 19.6044 22.3711 19.6044 21.656C19.6044 20.9408 20.1689 20.3592 20.863 20.3592C21.5571 20.3592 22.1216 20.9408 22.1216 21.656C22.1216 22.3711 21.5571 22.9527 20.863 22.9527Z" fill="white"/>
<path d="M25.917 5.88415C25.7383 5.64847 25.4642 5.511 25.1738 5.511H6.70915L5.85957 1.84864C5.75794 1.41101 5.37813 1.10205 4.94138 1.10205H1.82629C1.30492 1.102 0.882324 1.5374 0.882324 2.07457C0.882324 2.61173 1.30492 3.04714 1.82629 3.04714H4.1963L7.26418 16.2728C7.36581 16.7108 7.74562 17.0194 8.18236 17.0194H22.8768C23.3108 17.0194 23.6889 16.7147 23.7931 16.2809L26.0901 6.71727C26.1596 6.42685 26.0957 6.11982 25.917 5.88415ZM22.1383 15.0743H8.92745L7.16033 7.45614H23.9677L22.1383 15.0743Z" fill="white"/>
<path d="M9.44098 18.4141C7.70594 18.4141 6.29443 19.8684 6.29443 21.656C6.29443 23.4435 7.70599 24.8979 9.44098 24.8979C11.176 24.8979 12.5875 23.4435 12.5875 21.656C12.5875 19.8684 11.176 18.4141 9.44098 18.4141ZM9.44098 22.9527C8.74685 22.9527 8.18236 22.3711 8.18236 21.656C8.18236 20.9408 8.74685 20.3592 9.44098 20.3592C10.1351 20.3592 10.6996 20.9408 10.6996 21.656C10.6996 22.3711 10.1351 22.9527 9.44098 22.9527Z" fill="white"/>
</g>
<defs>
<clipPath id="clip0_2391_7631">
<rect width="25.2353" height="26" fill="white" transform="translate(0.882324)"/>
</clipPath>
</defs>
</svg>
