<svg width="30" height="30" viewBox="0 0 30 30" fill="none" xmlns="http://www.w3.org/2000/svg">
<path d="M14.2917 16.0417H18.9583C19.3715 16.0417 19.7181 15.9017 19.9981 15.6217C20.2781 15.3417 20.4176 14.9956 20.4167 14.5833C20.4167 14.1701 20.2767 13.8235 19.9967 13.5435C19.7167 13.2635 19.3706 13.124 18.9583 13.125H14.2917L15.6042 11.8125C15.8715 11.5451 16.0052 11.2049 16.0052 10.7917C16.0052 10.3785 15.8715 10.0382 15.6042 9.77083C15.3368 9.50347 14.9965 9.36979 14.5833 9.36979C14.1701 9.36979 13.8299 9.50347 13.5625 9.77083L9.77083 13.5625C9.47917 13.8542 9.33333 14.1944 9.33333 14.5833C9.33333 14.9722 9.47917 15.3125 9.77083 15.6042L13.5625 19.3958C13.8299 19.6632 14.1701 19.7969 14.5833 19.7969C14.9965 19.7969 15.3368 19.6632 15.6042 19.3958C15.8715 19.1285 16.0052 18.7882 16.0052 18.375C16.0052 17.9618 15.8715 17.6215 15.6042 17.3542L14.2917 16.0417ZM14.5833 29.1667C12.566 29.1667 10.6701 28.7836 8.89583 28.0175C7.12153 27.2514 5.57813 26.2126 4.26563 24.901C2.95313 23.5885 1.91431 22.0451 1.14917 20.2708C0.384028 18.4965 0.000972222 16.6007 0 14.5833C0 12.566 0.383056 10.6701 1.14917 8.89583C1.91528 7.12153 2.9541 5.57813 4.26563 4.26563C5.57813 2.95313 7.12153 1.91431 8.89583 1.14917C10.6701 0.384028 12.566 0.000972222 14.5833 0C16.6007 0 18.4965 0.383056 20.2708 1.14917C22.0451 1.91528 23.5885 2.9541 24.901 4.26563C26.2135 5.57813 27.2528 7.12153 28.019 8.89583C28.7851 10.6701 29.1676 12.566 29.1667 14.5833C29.1667 16.6007 28.7836 18.4965 28.0175 20.2708C27.2514 22.0451 26.2126 23.5885 24.901 24.901C23.5885 26.2135 22.0451 27.2528 20.2708 28.019C18.4965 28.7851 16.6007 29.1676 14.5833 29.1667ZM14.5833 26.25C17.8403 26.25 20.599 25.1198 22.8594 22.8594C25.1198 20.599 26.25 17.8403 26.25 14.5833C26.25 11.3264 25.1198 8.56771 22.8594 6.30729C20.599 4.04688 17.8403 2.91667 14.5833 2.91667C11.3264 2.91667 8.56771 4.04688 6.30729 6.30729C4.04688 8.56771 2.91667 11.3264 2.91667 14.5833C2.91667 17.8403 4.04688 20.599 6.30729 22.8594C8.56771 25.1198 11.3264 26.25 14.5833 26.25Z" fill="#D3D3D3"/>
</svg>
