<svg width="30" height="30" viewBox="0 0 30 30" fill="none" xmlns="http://www.w3.org/2000/svg">
<path d="M15.0416 16.0417L13.7291 17.3542C13.4618 17.6215 13.3281 17.9618 13.3281 18.375C13.3281 18.7882 13.4618 19.1285 13.7291 19.3958C13.9965 19.6632 14.3368 19.7969 14.75 19.7969C15.1632 19.7969 15.5034 19.6632 15.7708 19.3958L19.5625 15.6042C19.8541 15.3125 20 14.9722 20 14.5833C20 14.1944 19.8541 13.8542 19.5625 13.5625L15.7708 9.77083C15.5034 9.50347 15.1632 9.36979 14.75 9.36979C14.3368 9.36979 13.9965 9.50347 13.7291 9.77083C13.4618 10.0382 13.3281 10.3785 13.3281 10.7917C13.3281 11.2049 13.4618 11.5451 13.7291 11.8125L15.0416 13.125H10.375C9.96177 13.125 9.61517 13.265 9.33517 13.545C9.05517 13.825 8.91565 14.1711 8.91663 14.5833C8.91663 14.9965 9.05663 15.3431 9.33663 15.6231C9.61663 15.9031 9.96274 16.0426 10.375 16.0417H15.0416ZM14.75 29.1667C12.7326 29.1667 10.8368 28.7836 9.06246 28.0175C7.28815 27.2514 5.74475 26.2126 4.43225 24.901C3.11975 23.5885 2.08093 22.0451 1.31579 20.2708C0.550654 18.4965 0.167598 16.6007 0.166626 14.5833C0.166626 12.566 0.549682 10.6701 1.31579 8.89583C2.0819 7.12153 3.12072 5.57813 4.43225 4.26563C5.74475 2.95313 7.28815 1.91431 9.06246 1.14917C10.8368 0.384028 12.7326 0.000972222 14.75 0C16.7673 0 18.6632 0.383056 20.4375 1.14917C22.2118 1.91528 23.7552 2.9541 25.0677 4.26563C26.3802 5.57813 27.4195 7.12153 28.1856 8.89583C28.9517 10.6701 29.3343 12.566 29.3333 14.5833C29.3333 16.6007 28.9502 18.4965 28.1841 20.2708C27.418 22.0451 26.3792 23.5885 25.0677 24.901C23.7552 26.2135 22.2118 27.2528 20.4375 28.019C18.6632 28.7851 16.7673 29.1676 14.75 29.1667ZM14.75 26.25C18.0069 26.25 20.7656 25.1198 23.026 22.8594C25.2864 20.599 26.4166 17.8403 26.4166 14.5833C26.4166 11.3264 25.2864 8.56771 23.026 6.30729C20.7656 4.04688 18.0069 2.91667 14.75 2.91667C11.493 2.91667 8.73433 4.04688 6.47392 6.30729C4.2135 8.56771 3.08329 11.3264 3.08329 14.5833C3.08329 17.8403 4.2135 20.599 6.47392 22.8594C8.73433 25.1198 11.493 26.25 14.75 26.25Z" fill="#D3D3D3"/>
</svg>
