<svg width="30" height="30" viewBox="0 0 30 30" fill="none" xmlns="http://www.w3.org/2000/svg">
<path d="M14.5833 29.1667C12.566 29.1667 10.6701 28.7836 8.89583 28.0175C7.12153 27.2514 5.57813 26.2126 4.26563 24.901C2.95313 23.5885 1.91431 22.0451 1.14917 20.2708C0.384028 18.4965 0.000972222 16.6007 0 14.5833C0 12.566 0.383056 10.6701 1.14917 8.89583C1.91528 7.12153 2.9541 5.57813 4.26563 4.26563C5.57813 2.95313 7.12153 1.91431 8.89583 1.14917C10.6701 0.384028 12.566 0.000972222 14.5833 0C16.6007 0 18.4965 0.383056 20.2708 1.14917C22.0451 1.91528 23.5885 2.9541 24.901 4.26563C26.2135 5.57813 27.2528 7.12153 28.019 8.89583C28.7851 10.6701 29.1676 12.566 29.1667 14.5833C29.1667 16.6007 28.7836 18.4965 28.0175 20.2708C27.2514 22.0451 26.2126 23.5885 24.901 24.901C23.5885 26.2135 22.0451 27.2528 20.2708 28.019C18.4965 28.7851 16.6007 29.1676 14.5833 29.1667ZM14.5833 26.25C17.8403 26.25 20.599 25.1198 22.8594 22.8594C25.1198 20.599 26.25 17.8403 26.25 14.5833C26.25 11.3264 25.1198 8.56771 22.8594 6.30729C20.599 4.04688 17.8403 2.91667 14.5833 2.91667C11.3264 2.91667 8.56771 4.04688 6.30729 6.30729C4.04688 8.56771 2.91667 11.3264 2.91667 14.5833C2.91667 17.8403 4.04688 20.599 6.30729 22.8594C8.56771 25.1198 11.3264 26.25 14.5833 26.25Z" fill="white"/>
<path fill-rule="evenodd" clip-rule="evenodd" d="M17.7886 20.3033C18.3744 20.8891 19.3241 20.8891 19.9099 20.3033C20.4957 19.7175 20.4957 18.7678 19.9099 18.182L16.7279 15L19.9099 11.818C20.4957 11.2322 20.4957 10.2825 19.9099 9.6967C19.3241 9.11091 18.3744 9.11091 17.7886 9.6967L14.6066 12.8787L11.4246 9.6967C10.8388 9.11091 9.88909 9.11091 9.3033 9.6967C8.71751 10.2825 8.71751 11.2322 9.3033 11.818L12.4853 15L9.3033 18.182C8.71751 18.7678 8.71751 19.7175 9.3033 20.3033C9.88909 20.8891 10.8388 20.8891 11.4246 20.3033L14.6066 17.1213L17.7886 20.3033Z" fill="white"/>
</svg>
