<svg width="28" height="28" viewBox="0 0 28 28" fill="none" xmlns="http://www.w3.org/2000/svg">
<g clip-path="url(#clip0_2369_4492)">
<path fill-rule="evenodd" clip-rule="evenodd" d="M14 0C6.28923 0 0 6.28923 0 14C0 21.7108 6.28923 28 14 28C21.7108 28 28 21.7108 28 14C28 6.28923 21.7108 0 14 0Z" fill="#E73D5C"/>
<path d="M21.092 16.7094H17.991V7.79274C18.0787 7.35623 18.4823 7.02936 18.9384 7.02936H21.092C21.6142 7.02936 22.0391 7.45455 22.0391 7.97677V15.7624C22.0391 16.2845 21.6142 16.7094 21.092 16.7094ZM6.34599 15.6716C6.83031 16.2925 7.70099 16.7094 8.51255 16.7094H13.0805C13.1533 16.7094 13.2217 16.7436 13.2655 16.8014C13.3097 16.8592 13.324 16.9346 13.3044 17.0047L12.7271 19.0753C12.1714 21.0678 12.9048 21.6239 14.5913 22.3414C14.7491 22.4085 14.9026 22.4095 15.061 22.3448C15.2195 22.2803 15.3281 22.1723 15.3939 22.0142L17.5259 16.8958V7.92459L15.3776 7.02936L9.68849 7.02936C8.00592 7.02936 7.37609 8.81622 7.18342 9.58425L6.00715 14.2682C5.85501 14.8744 6.10745 15.366 6.34599 15.6716Z" fill="white"/>
</g>
<defs>
<clipPath id="clip0_2369_4492">
<rect width="28" height="28" fill="white" transform="matrix(-1 0 0 -1 28 28)"/>
</clipPath>
</defs>
</svg>
