<svg width="24" height="24" viewBox="0 0 24 24" fill="none" xmlns="http://www.w3.org/2000/svg">
<g clip-path="url(#clip0_2378_1889)">
<path d="M23.4375 15.525C23.1375 15.225 22.725 15.0375 22.3125 15L22.7625 14.55C23.5125 13.8 23.5125 12.6 22.7625 11.85C22.0125 11.1 20.8125 11.1 20.0625 11.85L17.3625 14.55L9.4875 6.675L12.1875 3.975C12.9375 3.225 12.9375 2.025 12.1875 1.275C11.8125 0.9 11.325 0.7125 10.8375 0.7125C10.3125 0.7125 9.8625 0.9 9.4875 1.275L9 1.6875C8.9625 1.275 8.775 0.9 8.475 0.5625C8.1 0.1875 7.6125 0 7.125 0C6.6 0 6.15 0.1875 5.775 0.5625L0.5625 5.7375C-0.1875 6.4875 -0.1875 7.6875 0.5625 8.4375C0.8625 8.7375 1.275 8.925 1.6875 8.9625L1.2375 9.4125C0.4875 10.1625 0.4875 11.3625 1.2375 12.1125C1.6125 12.4875 2.1 12.675 2.5875 12.675C3.075 12.675 3.5625 12.4875 3.9375 12.1125L6.6375 9.4125L14.5125 17.2875L11.8125 19.9875C11.0625 20.7375 11.0625 21.9375 11.8125 22.6875C12.1875 23.0625 12.6375 23.25 13.1625 23.25C13.6875 23.25 14.1375 23.0625 14.5125 22.6875L14.9625 22.2375C15 22.65 15.1875 23.025 15.4875 23.3625C15.8625 23.7375 16.35 23.925 16.8375 23.925C17.3625 23.925 17.8125 23.7375 18.1875 23.3625L23.3625 18.1875C24.1875 17.5125 24.1875 16.275 23.4375 15.525ZM1.9125 8.2875C1.6125 8.2875 1.3125 8.175 1.0875 7.95C0.6375 7.5 0.6375 6.75 1.0875 6.3L6.2625 1.0875C6.4875 0.8625 6.7875 0.75 7.0875 0.75C7.3875 0.75 7.6875 0.8625 7.9125 1.0875C8.3625 1.5375 8.3625 2.2875 7.9125 2.7375L2.7375 7.95C2.5125 8.1375 2.25 8.2875 1.9125 8.2875ZM3.4125 11.625C2.9625 12.075 2.2125 12.075 1.7625 11.625C1.3125 11.175 1.3125 10.425 1.7625 9.975L9.975 1.7625C10.2 1.5375 10.5 1.425 10.8 1.425C11.1 1.425 11.4 1.5375 11.625 1.7625C12.075 2.2125 12.075 2.9625 11.625 3.4125L3.4125 11.625ZM7.2 8.925L8.925 7.2L16.8 15.075L15.075 16.8L7.2 8.925ZM14.025 22.2375C13.575 22.6875 12.825 22.6875 12.375 22.2375C11.925 21.7875 11.925 21.0375 12.375 20.5875L20.5875 12.375C20.8125 12.15 21.1125 12.0375 21.4125 12.0375C21.7125 12.0375 22.0125 12.15 22.2375 12.375C22.6875 12.825 22.6875 13.575 22.2375 14.025L14.025 22.2375ZM22.9125 17.7375L17.7375 22.9125C17.2875 23.3625 16.5375 23.3625 16.0875 22.9125C15.8625 22.6875 15.75 22.3875 15.75 22.0875C15.75 21.7875 15.8625 21.4875 16.0875 21.2625L21.2625 16.0875C21.4875 15.8625 21.7875 15.75 22.0875 15.75C22.3875 15.75 22.6875 15.8625 22.9125 16.0875C23.3625 16.5375 23.3625 17.25 22.9125 17.7375Z" fill="#444444"/>
</g>
<defs>
<clipPath id="clip0_2378_1889">
<rect width="24" height="24" fill="white"/>
</clipPath>
</defs>
</svg>
