<svg width="24" height="24" viewBox="0 0 24 24" fill="none" xmlns="http://www.w3.org/2000/svg">
<g clip-path="url(#clip0_2378_1923)">
<path d="M5.69796 13.5563H7.1754C7.37049 13.5563 7.52866 13.3981 7.52866 13.203V12.3979H8.33384C8.52893 12.3979 8.68709 12.2397 8.68709 12.0446V10.5672C8.68709 10.3721 8.52893 10.2139 8.33384 10.2139H7.52866V9.40873C7.52866 9.21364 7.37049 9.05548 7.1754 9.05548H5.69796C5.50287 9.05548 5.34471 9.21364 5.34471 9.40873V10.2139H4.53953C4.34444 10.2139 4.18628 10.3721 4.18628 10.5672V12.0446C4.18628 12.2397 4.34444 12.3979 4.53953 12.3979H5.34471V13.203C5.34471 13.3981 5.50287 13.5563 5.69796 13.5563ZM4.89278 11.6914V10.9204H5.69796C5.89305 10.9204 6.05122 10.7623 6.05122 10.5672V9.76199H6.82215V10.5672C6.82215 10.7623 6.98032 10.9204 7.1754 10.9204H7.98058V11.6914H7.1754C6.98032 11.6914 6.82215 11.8495 6.82215 12.0446V12.8498H6.05122V12.0446C6.05122 11.8495 5.89305 11.6914 5.69796 11.6914H4.89278Z" fill="#444444"/>
<path d="M15.8037 9.16471C15.0824 9.38066 14.6711 10.1432 14.8871 10.8646C15.064 11.4559 15.6082 11.8387 16.196 11.8387C16.3253 11.8387 16.4568 11.8202 16.5869 11.7812C17.3083 11.5653 17.7195 10.8028 17.5036 10.0814C17.2877 9.35998 16.5251 8.94885 15.8037 9.16471ZM16.3844 11.1044C16.0362 11.2086 15.6682 11.0101 15.5639 10.662C15.4597 10.3138 15.6582 9.94577 16.0063 9.84154C16.0689 9.82284 16.1327 9.81356 16.1962 9.81356C16.304 9.81356 16.4107 9.84027 16.5082 9.89288C16.6631 9.97643 16.7763 10.1153 16.8268 10.284C16.931 10.6321 16.7325 11.0002 16.3844 11.1044Z" fill="#444444"/>
<path d="M18.8853 11.6223C18.1639 11.8383 17.7527 12.6008 17.9686 13.3222C18.1456 13.9134 18.6898 14.2963 19.2776 14.2963C19.4069 14.2963 19.5384 14.2778 19.6685 14.2388C20.3899 14.0229 20.8011 13.2604 20.5852 12.539C20.3692 11.8177 19.6067 11.4065 18.8853 11.6223ZM19.4659 13.562C19.1177 13.6663 18.7497 13.4677 18.6455 13.1196C18.5413 12.7714 18.7397 12.4034 19.0879 12.2992C19.1507 12.2804 19.2141 12.2714 19.2766 12.2714C19.5602 12.2714 19.8229 12.4563 19.9083 12.7416C20.0125 13.0898 19.8141 13.4578 19.4659 13.562Z" fill="#444444"/>
<path d="M1.54157 14.374C1.73266 14.4143 1.91988 14.2922 1.9602 14.1013L2.73995 10.4086C2.74452 10.3869 2.74706 10.3648 2.74748 10.3427C2.78281 8.55492 4.2668 7.09062 6.05552 7.07846C6.0632 7.07842 6.07078 7.07837 6.07842 7.07837C6.90762 7.07837 7.70126 7.38424 8.31535 7.94092C8.63653 8.23209 9.05812 8.39242 9.50246 8.39242H10.5903H13.4091H14.497C14.9413 8.39242 15.3629 8.23204 15.684 7.94092C16.3035 7.37943 17.1059 7.07408 17.9424 7.07842C19.7239 7.08972 21.2076 8.54625 21.2516 10.3259C21.2515 10.3315 21.2515 10.3371 21.2516 10.3427C21.2522 10.3736 21.2567 10.4034 21.2647 10.4318L22.0573 14.1851C22.0924 14.3514 22.2391 14.4654 22.4026 14.4654C22.4268 14.4654 22.4513 14.4629 22.4759 14.4578C22.6668 14.4174 22.7889 14.23 22.7486 14.0391L21.9575 10.2927C21.9278 9.25049 21.4985 8.27133 20.7475 7.53355C19.9917 6.79111 18.9971 6.37851 17.9469 6.37187C16.9322 6.3657 15.9605 6.73675 15.2096 7.4174C15.0186 7.59054 14.7655 7.68587 14.497 7.68587H13.7624V6.78103C13.7624 6.35086 13.4124 6.0009 12.9823 6.0009H12.353V1.21702C12.353 1.02193 12.1949 0.86377 11.9998 0.86377C11.8047 0.86377 11.6465 1.02193 11.6465 1.21702V6.0009H11.0173C10.5871 6.0009 10.2371 6.35086 10.2371 6.78103V7.68592H9.50251C9.23395 7.68592 8.98088 7.59059 8.78993 7.41744C8.04542 6.74254 7.08354 6.37182 6.07851 6.37182C6.06928 6.37182 6.06 6.37187 6.05077 6.37191C4.99789 6.37907 4.00176 6.79374 3.24585 7.53962C2.49795 8.2775 2.07126 9.25469 2.04197 10.2946L1.26891 13.9553C1.22864 14.1462 1.35072 14.3337 1.54157 14.374ZM10.9436 6.78103C10.9436 6.74043 10.9766 6.70741 11.0172 6.70741H12.9822C13.0228 6.70741 13.0559 6.74043 13.0559 6.78103V7.68592H10.9436V6.78103Z" fill="#444444"/>
<path d="M23.9366 19.6652L23.0482 15.4579C23.008 15.2671 22.8205 15.1451 22.6296 15.1853C22.4387 15.2256 22.3166 15.4131 22.3569 15.604L23.2454 19.8112C23.3648 20.3769 23.2594 20.957 22.9486 21.4445C22.8582 21.5863 22.7525 21.7171 22.6346 21.8331C22.1845 22.2759 21.5614 22.488 20.9252 22.4158C20.2672 22.3409 19.6863 21.9781 19.3314 21.4205C19.3294 21.4173 19.3274 21.4142 19.3252 21.4111L16.4992 17.2674C16.8139 16.9278 17.0066 16.4738 17.0066 15.9754C17.0066 14.9259 16.1529 14.0722 15.1035 14.0722C14.1753 14.0722 13.4007 14.7402 13.234 15.6206L10.7653 15.6187C10.5978 14.7393 9.82361 14.0722 8.89611 14.0722C7.84667 14.0722 6.99293 14.9259 6.99293 15.9754C6.99293 16.4738 7.18571 16.9278 7.50029 17.2673L4.6747 21.4105C4.67263 21.4136 4.67055 21.4167 4.66853 21.4199C4.31363 21.9775 3.73274 22.3403 3.07475 22.4153C2.43856 22.4878 1.81547 22.2753 1.36538 21.8325C1.24735 21.7164 1.1417 21.5857 1.05137 21.444C0.740504 20.9564 0.635141 20.3764 0.754587 19.8106L1.66358 15.5057C1.70385 15.3149 1.58181 15.1274 1.39091 15.0871C1.20001 15.0469 1.01265 15.1689 0.972285 15.3598L0.0633904 19.6647C-0.0944898 20.4125 0.0448329 21.1793 0.455736 21.8238C0.574617 22.0103 0.713987 22.1826 0.869936 22.3361C1.39543 22.8531 2.09549 23.1358 2.82898 23.1357C2.93693 23.1357 3.04578 23.1296 3.15472 23.1172C4.02372 23.0182 4.79132 22.5397 5.26152 21.804L8.06809 17.6887C8.31857 17.8103 8.59952 17.8785 8.89611 17.8785C9.82596 17.8785 10.6017 17.208 10.7665 16.3252L13.2334 16.3271C13.3989 17.209 14.1742 17.8785 15.1035 17.8785C15.4 17.8785 15.681 17.8103 15.9314 17.6887L18.7386 21.8045C19.2088 22.5402 19.9764 23.0187 20.8454 23.1176C20.9543 23.1301 21.0631 23.1362 21.1711 23.1362C21.9045 23.1362 22.6047 22.8535 23.1301 22.3366C23.286 22.1833 23.4254 22.0109 23.5443 21.8242C23.9552 21.1798 24.0945 20.413 23.9366 19.6652ZM8.89611 17.1721C8.23623 17.1721 7.69943 16.6353 7.69943 15.9754C7.69943 15.3156 8.23623 14.7788 8.89611 14.7788C9.55594 14.7788 10.0928 15.3156 10.0928 15.9754C10.0928 16.6353 9.55598 17.1721 8.89611 17.1721ZM13.9068 15.9754C13.9068 15.3155 14.4436 14.7787 15.1035 14.7787C15.7633 14.7787 16.3001 15.3155 16.3001 15.9754C16.3001 16.6353 15.7633 17.1721 15.1035 17.1721C14.4436 17.1721 13.9068 16.6353 13.9068 15.9754Z" fill="#444444"/>
<path d="M11.1646 11.2255L10.6218 11.7683C10.4838 11.9062 10.4838 12.1299 10.6218 12.2678C10.6907 12.3368 10.7812 12.3713 10.8716 12.3713C10.9619 12.3713 11.0524 12.3368 11.1213 12.2678L11.6641 11.725C11.8021 11.5871 11.8021 11.3634 11.6641 11.2255C11.5262 11.0875 11.3025 11.0875 11.1646 11.2255Z" fill="#444444"/>
<path d="M12.8685 11.2255L12.3256 11.7683C12.1877 11.9063 12.1877 12.1299 12.3256 12.2678C12.3946 12.3368 12.485 12.3713 12.5754 12.3713C12.6658 12.3713 12.7562 12.3368 12.8252 12.2678L13.368 11.7251C13.506 11.5871 13.506 11.3635 13.368 11.2255C13.2301 11.0875 13.0064 11.0875 12.8685 11.2255Z" fill="#444444"/>
</g>
<defs>
<clipPath id="clip0_2378_1923">
<rect width="24" height="24" fill="white"/>
</clipPath>
</defs>
</svg>
