<svg width="24" height="24" viewBox="0 0 24 24" fill="none" xmlns="http://www.w3.org/2000/svg">
<g clip-path="url(#clip0_2514_3773)">
<path d="M11.9999 2.43333C16.1013 2.43333 18.8878 3.76884 20.2819 6.40275C20.3729 6.57469 20.5861 6.64031 20.7581 6.54933C20.93 6.4583 20.9957 6.24516 20.9046 6.07317C19.3788 3.1905 16.3829 1.72884 11.9999 1.72884C8.15252 1.72884 5.36172 2.86397 3.70497 5.10267C2.44586 6.804 1.85908 9.17944 2.00796 11.9722C2.11938 14.0625 2.59338 15.6333 2.61349 15.6992C2.61532 15.7051 2.61729 15.711 2.61944 15.717L3.11566 17.0776C3.1158 17.0779 3.11589 17.0782 3.11599 17.0785L5.32938 23.1477L5.32994 23.1493L5.3666 23.2498C4.37707 23.0738 3.54461 22.401 3.16966 21.4368L2.42219 19.5148C2.14596 18.8043 2.06838 18.0318 2.19785 17.2807C2.20788 17.2224 2.2031 17.1626 2.18397 17.1067C2.17708 17.0866 1.49454 15.0707 1.26063 12.4761C1.12385 10.9582 1.16618 9.54651 1.38654 8.28005C1.65902 6.71362 2.20619 5.36747 3.01286 4.27903C3.12874 4.1227 3.09593 3.90216 2.9396 3.78628C2.78318 3.67041 2.56258 3.70327 2.44685 3.85955C1.57511 5.03573 0.985192 6.48056 0.693395 8.15386C0.462207 9.47967 0.416645 10.9519 0.558114 12.5295C0.773739 14.9343 1.3526 16.8275 1.48914 17.2493C1.35864 18.0986 1.45375 18.9682 1.76552 19.77L2.51299 21.6921C2.77844 22.3747 3.23838 22.9542 3.84293 23.3677C4.44743 23.7813 5.15411 23.9999 5.88663 23.9999C6.12372 24.0065 6.30504 23.7474 6.21757 23.527L6.19863 23.4751L8.14315 23.7885C8.20216 23.7985 8.26343 23.7914 8.31986 23.7717L9.70357 23.267C10.1444 23.1063 10.4962 22.7835 10.6942 22.3582C10.8922 21.9328 10.9127 21.4559 10.7519 21.0151L9.5313 17.6681C9.46469 17.4854 9.26247 17.391 9.07971 17.4579C8.89694 17.5245 8.80282 17.7267 8.86947 17.9095L10.0901 21.2565C10.1864 21.5205 10.1741 21.8061 10.0555 22.0608C9.93691 22.3155 9.72625 22.5089 9.46225 22.6051L8.40944 22.9891L5.575 15.2171L6.62782 14.8332C7.17288 14.6346 7.77785 14.9161 7.97655 15.4611L8.38507 16.5812C8.56165 17.0152 9.19165 16.7812 9.0469 16.3398L8.63838 15.2197C8.30655 14.3098 7.29635 13.8394 6.38646 14.1713L5.00683 14.6745C4.94904 14.6951 4.89686 14.7308 4.8566 14.7769L3.57044 16.2685L3.28479 15.4852C3.24804 15.3611 2.8113 13.85 2.71047 11.9169C2.61513 10.0894 2.80877 7.49616 4.27286 5.51948C5.78974 3.4717 8.38947 2.43333 11.9999 2.43333ZM4.99816 15.6916L7.66258 22.9974L5.92216 22.7169L3.847 17.0267L4.99816 15.6916Z" fill="#444444"/>
<path d="M23.3246 8.26167C23.0488 6.59831 22.4816 5.15695 21.6387 3.97753C19.7526 1.33823 16.5097 0 12.0002 0H11.9996C8.25597 0 5.37124 0.928078 3.42565 2.75845C3.09687 3.09 3.55816 3.57923 3.90832 3.27155C5.71896 1.56816 8.44122 0.704485 12.0001 0.704485C16.2681 0.704485 19.3177 1.94288 21.0641 4.38525C22.838 6.86588 22.9515 10.1816 22.7344 12.5264C22.4968 15.0915 21.8224 17.087 21.8156 17.1068C21.7966 17.1627 21.7918 17.2225 21.8018 17.2806C21.9313 18.0317 21.8538 18.8043 21.5775 19.5147L20.83 21.4368C20.4551 22.4009 19.6226 23.0738 18.6331 23.2497L18.6697 23.1492C18.6699 23.1487 18.6701 23.1482 18.6703 23.1477L20.8837 17.0785C20.8838 17.0782 20.8839 17.0779 20.884 17.0776L21.3802 15.7169C21.3824 15.711 21.3843 15.7051 21.3862 15.6991C21.4408 15.5202 22.7112 11.2736 21.4893 7.47042C21.4298 7.28522 21.231 7.18327 21.0462 7.2428C20.8609 7.30233 20.7591 7.5007 20.8186 7.68591C21.9477 11.2 20.7761 15.2775 20.7148 15.4852L20.4292 16.2685L19.143 14.7768C19.1027 14.7306 19.0504 14.6949 18.9925 14.6743L17.6132 14.1713C17.1724 14.0105 16.6954 14.031 16.2701 14.229C15.8448 14.427 15.522 14.7788 15.3613 15.2196L13.2477 21.0149C13.087 21.4557 13.1075 21.9327 13.3055 22.358C13.5035 22.7833 13.8553 23.1061 14.2961 23.2668L15.6798 23.7715C15.7362 23.7912 15.7975 23.7983 15.8565 23.7883L17.801 23.4749L17.7821 23.5268C17.6946 23.7473 17.8759 24.0064 18.113 23.9997C18.8455 23.9997 19.5522 23.7811 20.1567 23.3676C20.7613 22.954 21.2212 22.3746 21.4867 21.6919L22.2341 19.7699C22.5459 18.9681 22.641 18.0985 22.5105 17.2492C22.6458 16.8319 23.214 14.9766 23.435 12.6004C23.5803 11.0392 23.5432 9.57933 23.3246 8.26167ZM13.9442 22.0608C13.8257 21.8061 13.8133 21.5204 13.9096 21.2565L16.0232 15.4611C16.1194 15.1971 16.3128 14.9865 16.5675 14.8679C16.8222 14.7493 17.1078 14.737 17.3718 14.8332L18.4247 15.2172L15.5903 22.9891L14.5375 22.6052C14.2735 22.5089 14.0628 22.3156 13.9442 22.0608ZM16.3372 22.9974L19.0016 15.6916L20.1528 17.0267L18.0776 22.7169L16.3372 22.9974Z" fill="#444444"/>
</g>
<defs>
<clipPath id="clip0_2514_3773">
<rect width="24" height="24" fill="white"/>
</clipPath>
</defs>
</svg>
