<svg width="24" height="24" viewBox="0 0 24 24" fill="none" xmlns="http://www.w3.org/2000/svg">
<path d="M20.7751 16.4089V5.93512C20.7751 5.8481 20.7405 5.76464 20.679 5.7031C20.6175 5.64156 20.534 5.60699 20.447 5.60699H3.55322C3.4662 5.60699 3.38274 5.64156 3.3212 5.7031C3.25967 5.76464 3.2251 5.8481 3.2251 5.93512V16.4089C3.2251 16.4959 3.25967 16.5794 3.3212 16.6409C3.38274 16.7024 3.4662 16.737 3.55322 16.737H20.447C20.534 16.737 20.6175 16.7024 20.679 16.6409C20.7405 16.5794 20.7751 16.4959 20.7751 16.4089ZM20.1189 16.0807H3.88135V6.26249H20.1189V16.0807Z" fill="#E73D5C"/>
<path d="M22.8175 17.3413H22.036V5.51887C22.0357 5.20806 21.9121 4.91007 21.6923 4.69029C21.4725 4.47052 21.1745 4.34692 20.8637 4.34662H3.13637C2.82556 4.34692 2.52757 4.47052 2.30779 4.69029C2.08802 4.91007 1.96441 5.20806 1.96412 5.51887V17.3413H1.18262C1.09561 17.3414 1.01218 17.3759 0.950653 17.4375C0.889128 17.499 0.854542 17.5824 0.854492 17.6694V18.4815C0.85484 18.7922 0.978416 19.0901 1.19811 19.3098C1.4178 19.5294 1.71567 19.653 2.02637 19.6534H21.9737C22.2845 19.6531 22.5823 19.5295 22.8021 19.3098C23.0218 19.0901 23.1453 18.7922 23.1456 18.4815V17.6694C23.1456 17.5824 23.111 17.4989 23.0495 17.4374C22.988 17.3759 22.9045 17.3413 22.8175 17.3413ZM2.62037 5.51887C2.62047 5.38205 2.67486 5.25086 2.77161 5.15411C2.86836 5.05736 2.99955 5.00297 3.13637 5.00287H20.8637C21.0006 5.00297 21.1318 5.05736 21.2285 5.15411C21.3252 5.25086 21.3796 5.38205 21.3797 5.51887V17.3413H14.4646C14.3775 17.3413 14.2941 17.3759 14.2325 17.4374C14.171 17.4989 14.1364 17.5824 14.1364 17.6694V17.8447H9.86368V17.6694C9.86363 17.5824 9.82904 17.499 9.76752 17.4375C9.70599 17.3759 9.62256 17.3414 9.53555 17.3413H2.62037V5.51887ZM22.4894 18.4815C22.4892 18.6182 22.4348 18.7493 22.3382 18.8459C22.2415 18.9426 22.1104 18.997 21.9737 18.9971H2.02637C1.88968 18.9969 1.75864 18.9425 1.66198 18.8459C1.56533 18.7492 1.51094 18.6182 1.51074 18.4815V17.9976H9.20743V18.1729C9.20743 18.2599 9.242 18.3434 9.30354 18.4049C9.36507 18.4664 9.44853 18.501 9.53555 18.501H14.4646C14.5516 18.501 14.635 18.4664 14.6966 18.4049C14.7581 18.3434 14.7927 18.2599 14.7927 18.1729V17.9976H22.4894V18.4815Z" fill="#E73D5C"/>
</svg>
