<svg width="28" height="28" viewBox="0 0 28 28" fill="none" xmlns="http://www.w3.org/2000/svg">
<g clip-path="url(#clip0_2369_4489)">
<path fill-rule="evenodd" clip-rule="evenodd" d="M14 28C21.7108 28 28 21.7108 28 14C28 6.28923 21.7108 0 14 0C6.28923 0 0 6.28923 0 14C0 21.7108 6.28923 28 14 28Z" fill="#29A71A"/>
<path d="M6.90802 11.2906H10.009V20.2073C9.9213 20.6438 9.5177 20.9706 9.06161 20.9706H6.90802C6.3858 20.9706 5.96094 20.5454 5.96094 20.0232V12.2376C5.96094 11.7155 6.3858 11.2906 6.90802 11.2906ZM21.654 12.3284C21.1697 11.7075 20.299 11.2906 19.4875 11.2906H14.9195C14.8467 11.2906 14.7783 11.2564 14.7345 11.1986C14.6903 11.1408 14.676 11.0654 14.6956 10.9953L15.2729 8.92468C15.8286 6.9322 15.0952 6.37608 13.4087 5.65858C13.2509 5.59148 13.0974 5.59049 12.939 5.65524C12.7805 5.71966 12.6719 5.82767 12.6061 5.98577L10.4741 11.1042V20.0754L12.6224 20.9706H18.3115C19.9941 20.9706 20.6239 19.1838 20.8166 18.4157L21.9928 13.7318C22.145 13.1256 21.8926 12.634 21.654 12.3284Z" fill="white"/>
</g>
<defs>
<clipPath id="clip0_2369_4489">
<rect width="28" height="28" fill="white"/>
</clipPath>
</defs>
</svg>
