<svg width="16" height="16" viewBox="0 0 16 16" fill="none" xmlns="http://www.w3.org/2000/svg">
<g clip-path="url(#clip0_2456_4546)">
<path d="M8 0C10.1217 0 12.1566 0.842855 13.6569 2.34315C15.1571 3.84344 16 5.87827 16 8C16 10.1217 15.1571 12.1566 13.6569 13.6569C12.1566 15.1571 10.1217 16 8 16C5.87827 16 3.84344 15.1571 2.34315 13.6569C0.842855 12.1566 0 10.1217 0 8C0 5.87827 0.842855 3.84344 2.34315 2.34315C3.84344 0.842855 5.87827 0 8 0ZM1.5 8C1.5 9.72391 2.18482 11.3772 3.40381 12.5962C4.62279 13.8152 6.27609 14.5 8 14.5C9.72391 14.5 11.3772 13.8152 12.5962 12.5962C13.8152 11.3772 14.5 9.72391 14.5 8C14.5 6.27609 13.8152 4.62279 12.5962 3.40381C11.3772 2.18482 9.72391 1.5 8 1.5C6.27609 1.5 4.62279 2.18482 3.40381 3.40381C2.18482 4.62279 1.5 6.27609 1.5 8ZM8.75 4.75V7.25H11.25C11.4489 7.25 11.6397 7.32902 11.7803 7.46967C11.921 7.61032 12 7.80109 12 8C12 8.19891 11.921 8.38968 11.7803 8.53033C11.6397 8.67098 11.4489 8.75 11.25 8.75H8.75V11.25C8.75 11.4489 8.67098 11.6397 8.53033 11.7803C8.38968 11.921 8.19891 12 8 12C7.80109 12 7.61032 11.921 7.46967 11.7803C7.32902 11.6397 7.25 11.4489 7.25 11.25V8.75H4.75C4.55109 8.75 4.36032 8.67098 4.21967 8.53033C4.07902 8.38968 4 8.19891 4 8C4 7.80109 4.07902 7.61032 4.21967 7.46967C4.36032 7.32902 4.55109 7.25 4.75 7.25H7.25V4.75C7.25 4.55109 7.32902 4.36032 7.46967 4.21967C7.61032 4.07902 7.80109 4 8 4C8.19891 4 8.38968 4.07902 8.53033 4.21967C8.67098 4.36032 8.75 4.55109 8.75 4.75Z" fill="white"/>
</g>
<defs>
<clipPath id="clip0_2456_4546">
<rect width="16" height="16" fill="white"/>
</clipPath>
</defs>
</svg>
