<svg width="24" height="24" viewBox="0 0 24 24" fill="none" xmlns="http://www.w3.org/2000/svg">
<mask id="mask0_2514_3777" style="mask-type:luminance" maskUnits="userSpaceOnUse" x="0" y="0" width="24" height="24">
<path d="M0 1.90735e-06H24V24H0V1.90735e-06Z" fill="white"/>
</mask>
<g mask="url(#mask0_2514_3777)">
<path d="M1.36369 18.983L0.420561 18.0398C0.348374 17.9677 0.330561 17.8566 0.377905 17.7661C1.029 16.5061 2.34337 15.6445 3.85931 15.6445C5.70197 15.6445 7.24744 16.9163 7.66603 18.63" stroke="#444444" stroke-width="0.5" stroke-miterlimit="10" stroke-linecap="round" stroke-linejoin="round"/>
<path d="M6.24662 20.4956C5.8735 21.4495 4.94537 22.125 3.85928 22.125C2.44464 22.125 1.29761 20.978 1.29761 19.5628C1.29761 18.1477 2.44464 17.0006 3.85928 17.0006C4.94537 17.0006 5.8735 17.6761 6.24662 18.63" stroke="#444444" stroke-width="0.5" stroke-miterlimit="10" stroke-linecap="round" stroke-linejoin="round"/>
<path d="M21.5795 17.048C22.7583 17.2777 23.6485 18.3164 23.6485 19.5628C23.6485 20.9779 22.5015 22.125 21.0863 22.125C19.6712 22.125 18.5242 20.9779 18.5242 19.5628C18.5242 18.6403 19.0117 17.8313 19.7434 17.3803" stroke="#444444" stroke-width="0.5" stroke-miterlimit="10" stroke-linecap="round" stroke-linejoin="round"/>
<path d="M18.5662 9.1205L17.6367 3.8518" stroke="#444444" stroke-width="0.5" stroke-miterlimit="10" stroke-linecap="round" stroke-linejoin="round"/>
<path d="M19.1502 12.4336L18.8535 10.7503" stroke="#444444" stroke-width="0.5" stroke-miterlimit="10" stroke-linecap="round" stroke-linejoin="round"/>
<path d="M19.3284 3.23632L19.2674 3.35492C19.0833 3.71398 19.0213 4.12367 19.0912 4.52117L20.4464 12.2053" stroke="#444444" stroke-width="0.5" stroke-miterlimit="10" stroke-linecap="round" stroke-linejoin="round"/>
<path d="M15.4446 3.94136C15.5704 4.28697 15.9525 4.4651 16.2981 4.33933L19.568 3.14922C19.763 3.07821 19.8636 2.86253 19.7927 2.66749L19.5942 2.12238C19.5233 1.92733 19.3076 1.82678 19.1125 1.89775L15.8426 3.08791C15.497 3.21372 15.3189 3.5958 15.4446 3.94136Z" stroke="#444444" stroke-width="0.5" stroke-miterlimit="10" stroke-linecap="round" stroke-linejoin="round"/>
<path d="M16.4551 18.63L19.0731 16.012C19.2268 15.8583 19.4898 15.9413 19.5273 16.155L20.1578 19.7302L20.169 19.7278C20.2469 20.1642 20.6274 20.4956 21.0863 20.4956C21.6015 20.4956 22.0192 20.078 22.0192 19.5628C22.0192 19.4597 22.0018 19.3608 21.9709 19.268L20.7428 12.3038C20.7287 12.2232 20.6518 12.1693 20.5707 12.1833L19.0258 12.4557C18.9451 12.4702 18.8912 12.5471 18.9053 12.6277L19.082 13.6299C19.1251 13.8741 19.0463 14.1239 18.871 14.2997L14.5408 18.63" stroke="#444444" stroke-width="0.5" stroke-miterlimit="10" stroke-linecap="round" stroke-linejoin="round"/>
<path d="M9.11148 18.63H3.85942C3.33287 18.63 2.90823 19.0662 2.92712 19.597C2.94512 20.1025 3.37595 20.4959 3.88182 20.4959H6.9954C7.00937 20.4959 7.02334 20.4979 7.0367 20.502L9.71734 21.3234C9.76196 21.3371 9.80842 21.344 9.85506 21.344H15.3209C15.5971 21.344 15.8572 21.2136 16.0225 20.9923L17.3029 19.2775C17.5024 19.0103 17.3117 18.63 16.9782 18.63H10.7521" stroke="#444444" stroke-width="0.5" stroke-miterlimit="10" stroke-linecap="round" stroke-linejoin="round"/>
</g>
</svg>
