<svg width="18" height="18" viewBox="0 0 18 18" fill="none" xmlns="http://www.w3.org/2000/svg">
<path d="M9.21162 14.4531L4.98713 16.9979C4.8005 17.1167 4.60539 17.1676 4.4018 17.1506C4.19821 17.1337 4.02007 17.0658 3.86738 16.947C3.71469 16.8283 3.59593 16.6797 3.5111 16.5012C3.42627 16.3227 3.4093 16.1235 3.4602 15.9036L4.57994 11.0938L0.838975 7.86184C0.669317 7.70914 0.56345 7.53507 0.521375 7.33963C0.479299 7.14418 0.491854 6.95348 0.559039 6.76754C0.626902 6.58091 0.728697 6.42822 0.864424 6.30946C1.00015 6.1907 1.18678 6.11435 1.4243 6.08042L6.36136 5.64779L8.27002 1.11791C8.35485 0.914322 8.4865 0.761629 8.66498 0.659834C8.84346 0.558039 9.02568 0.507141 9.21162 0.507141C9.39825 0.507141 9.58046 0.558039 9.75826 0.659834C9.93606 0.761629 10.0677 0.914322 10.1532 1.11791L12.0619 5.64779L16.9989 6.08042C17.2365 6.11435 17.4231 6.1907 17.5588 6.30946C17.6945 6.42822 17.7963 6.58091 17.8642 6.76754C17.9321 6.95416 17.945 7.1452 17.9029 7.34064C17.8608 7.53609 17.7546 7.70982 17.5843 7.86184L13.8433 11.0938L14.963 15.9036C15.0139 16.1242 14.997 16.3237 14.9121 16.5022C14.8273 16.6807 14.7086 16.829 14.5559 16.947C14.4032 17.0658 14.225 17.1337 14.0214 17.1506C13.8178 17.1676 13.6227 17.1167 13.4361 16.9979L9.21162 14.4531Z" fill="#E73D5C"/>
</svg>
