<svg width="24" height="24" viewBox="0 0 24 24" fill="none" xmlns="http://www.w3.org/2000/svg">
<path d="M22.9265 22.2043L22.6475 20.622C22.7661 20.4528 22.8501 20.2618 22.8947 20.06C22.9394 19.8582 22.9437 19.6496 22.9075 19.4462L20.6523 6.65625C20.5661 6.173 20.3442 5.72423 20.0125 5.36235C19.6809 5.00047 19.2531 4.7404 18.7792 4.6125L17.0703 4.15575C17.0052 3.29423 16.6173 2.48902 15.9842 1.90107C15.3512 1.31312 14.5195 0.985742 13.6555 0.984375H10.3443C9.48015 0.98576 8.64839 1.31327 8.01529 1.90141C7.3822 2.48956 6.99444 3.295 6.92953 4.15669L5.22066 4.61344C4.7467 4.7413 4.31889 5.00136 3.98718 5.36325C3.65548 5.72513 3.43356 6.17391 3.34735 6.65719L1.09247 19.446C1.05619 19.6495 1.06048 19.8581 1.10508 20.0599C1.14967 20.2617 1.23371 20.4528 1.35234 20.622L1.07334 22.2043C1.05825 22.29 1.07779 22.3782 1.12769 22.4494C1.17758 22.5207 1.25373 22.5692 1.33941 22.5844L3.75684 23.0107C3.77543 23.0139 3.79424 23.0156 3.81309 23.0156C3.89026 23.0157 3.96498 22.9885 4.02411 22.9389C4.08323 22.8894 4.12298 22.8205 4.13635 22.7445L4.41534 21.1622C4.5848 21.0438 4.72919 20.8931 4.84023 20.7187C4.95127 20.5443 5.02678 20.3498 5.06241 20.1461L5.67178 16.6899V20.1866C5.67212 20.4151 5.74491 20.6376 5.87967 20.8221C6.01444 21.0066 6.20424 21.1436 6.42178 21.2134V22.6875C6.42183 22.7745 6.45642 22.8579 6.51794 22.9195C6.57947 22.981 6.6629 23.0156 6.74991 23.0156H17.2499C17.3369 23.0156 17.4203 22.981 17.4819 22.9195C17.5434 22.8579 17.578 22.7745 17.578 22.6875V21.2134C17.7956 21.1436 17.9854 21.0066 18.1201 20.8221C18.2549 20.6376 18.3277 20.4151 18.328 20.1866V16.6899L18.9374 20.1461C18.973 20.3497 19.0484 20.5443 19.1593 20.7186C19.2703 20.893 19.4146 21.0437 19.5839 21.1622L19.8629 22.7445C19.8763 22.8205 19.916 22.8894 19.9751 22.9389C20.0343 22.9885 20.109 23.0157 20.1862 23.0156C20.205 23.0156 20.2238 23.0139 20.2424 23.0107L22.6597 22.5844C22.7021 22.577 22.7428 22.5613 22.7792 22.5381C22.8156 22.515 22.8471 22.485 22.8719 22.4497C22.8966 22.4144 22.9142 22.3745 22.9236 22.3324C22.933 22.2903 22.9339 22.2468 22.9265 22.2043ZM16.4202 4.22156L13.3387 5.91694C14.1795 4.75979 14.7801 3.44605 15.1053 2.05312C15.4812 2.28383 15.7967 2.60094 16.0254 2.97809C16.2542 3.35524 16.3894 3.78155 16.4202 4.22156ZM10.1062 3.62944H13.8937C13.4084 4.68901 12.7704 5.67166 11.9999 6.546C11.2294 5.67166 10.5914 4.68901 10.1062 3.62944ZM13.6555 1.64062C13.9391 1.64121 14.2208 1.68548 14.4908 1.77187C14.4108 2.18055 14.2993 2.58244 14.1573 2.97394H9.84253C9.70056 2.58244 9.58904 2.18055 9.50897 1.77187C9.77901 1.68547 10.0608 1.6412 10.3443 1.64062H13.6555ZM8.89453 2.05312C9.21967 3.44605 9.82035 4.75979 10.6612 5.91694L7.57941 4.22156C7.61024 3.78155 7.74565 3.35524 7.97439 2.97809C8.20312 2.60094 8.51858 2.28383 8.89453 2.05312ZM3.54759 22.3074L1.77666 21.9951L1.96659 20.9171L3.73772 21.2293L3.54759 22.3074ZM4.4161 20.0321C4.37499 20.2677 4.24345 20.4779 4.04953 20.6179L1.88278 20.2359C1.74848 20.038 1.69675 19.7955 1.73859 19.56L3.99366 6.77044C4.04657 6.47803 4.16642 6.20182 4.34383 5.96343C4.52123 5.72503 4.75138 5.53091 5.01628 5.39625L5.66897 12.9249L4.4161 20.0321ZM7.0786 22.3594V21.2648H16.9223V22.3594H7.0786ZM17.6723 20.1866C17.6722 20.2985 17.6278 20.4057 17.5487 20.4848C17.4696 20.5639 17.3623 20.6084 17.2505 20.6085H6.74991C6.63805 20.6084 6.5308 20.5639 6.45171 20.4848C6.37261 20.4057 6.32813 20.2985 6.32803 20.1866V12.9396C6.32803 12.9298 6.32691 12.9111 6.32691 12.9111L5.65603 5.17631L7.20216 4.76381L11.8417 7.3155C11.8902 7.34207 11.9446 7.356 11.9999 7.356C12.0552 7.356 12.1096 7.34207 12.1582 7.3155L16.7977 4.7625L18.3438 5.175L17.6729 12.9111C17.6729 12.9111 17.6718 12.9298 17.6718 12.9396L17.6723 20.1866ZM19.9508 20.6179C19.7569 20.4779 19.6254 20.2677 19.5843 20.0321L18.331 12.9259L18.9839 5.39719C19.2488 5.53185 19.479 5.72597 19.6564 5.96436C19.8338 6.20276 19.9536 6.47896 20.0065 6.77137L22.2618 19.5609C22.3035 19.7964 22.2518 20.0389 22.1176 20.2369L19.9508 20.6179ZM20.4528 22.3074L20.2627 21.2293L22.0338 20.9171L22.2237 21.9951L20.4528 22.3074Z" fill="#444444"/>
<path d="M16.4414 16.425C15.9585 16.2122 15.548 15.8635 15.2597 15.4215C14.9715 14.9794 14.818 14.4631 14.818 13.9354C14.818 13.8484 14.7834 13.765 14.7219 13.7035C14.6603 13.6419 14.5769 13.6073 14.4899 13.6073H9.5099C9.42289 13.6073 9.33946 13.6419 9.27793 13.7035C9.21641 13.765 9.18182 13.8484 9.18177 13.9354C9.18159 14.4628 9.02817 14.9788 8.74017 15.4206C8.45216 15.8624 8.04198 16.2109 7.55952 16.4239C7.49859 16.4483 7.44636 16.4903 7.40959 16.5447C7.37282 16.599 7.3532 16.6632 7.35327 16.7288V19.2563C7.35332 19.3433 7.38791 19.4267 7.44943 19.4883C7.51096 19.5498 7.59439 19.5844 7.6814 19.5844H16.3191C16.4062 19.5844 16.4896 19.5498 16.5511 19.4883C16.6126 19.4267 16.6472 19.3433 16.6473 19.2563V16.7288C16.6469 16.6635 16.6271 16.5997 16.5904 16.5457C16.5538 16.4916 16.5019 16.4496 16.4414 16.425ZM15.9914 18.9286H8.00877V16.9358C8.51212 16.6795 8.94253 16.3001 9.26004 15.8329C9.57754 15.3657 9.77184 14.8259 9.8249 14.2635H14.1768C14.2297 14.8258 14.4239 15.3656 14.7412 15.8328C15.0586 16.2999 15.4888 16.6793 15.992 16.9358L15.9914 18.9286Z" fill="#444444"/>
</svg>
