<svg width="24" height="24" viewBox="0 0 24 24" fill="none" xmlns="http://www.w3.org/2000/svg">
<path d="M19.0497 0H4.95035C3.82136 0 2.90283 0.918531 2.90283 2.04752V21.1231C2.90283 21.6589 3.25065 22.1146 3.73221 22.2773V22.7819C3.73221 23.4535 4.27866 24 4.95035 24H19.0497C19.7214 24 20.2678 23.4535 20.2678 22.7819V22.2773C20.7494 22.1146 21.0972 21.6589 21.0972 21.1231V2.04752C21.0972 0.918531 20.1787 0 19.0497 0ZM4.95035 0.777538H19.0497C19.75 0.777538 20.3197 1.34727 20.3197 2.04752V4.97624H3.68037V2.04752C3.68037 1.34727 4.25005 0.777538 4.95035 0.777538ZM19.0497 23.2225H4.95035C4.70739 23.2225 4.50974 23.0248 4.50974 22.7819V22.3413H19.4903V22.7819C19.4903 23.0248 19.2927 23.2225 19.0497 23.2225ZM19.8791 21.5637H4.12097C3.87802 21.5637 3.68037 21.3661 3.68037 21.1231V5.75378H20.3197V21.1231C20.3197 21.3661 20.122 21.5637 19.8791 21.5637Z" fill="#444444"/>
<path d="M11.9999 7.04968C8.35567 7.04968 5.39087 10.0145 5.39087 13.6588C5.39087 17.303 8.35567 20.2678 11.9999 20.2678C15.6442 20.2678 18.609 17.303 18.609 13.6588C18.609 10.0145 15.6442 7.04968 11.9999 7.04968ZM11.9999 19.4903C8.78446 19.4903 6.16841 16.8743 6.16841 13.6588C6.16841 10.4432 8.78446 7.82722 11.9999 7.82722C15.2154 7.82722 17.8315 10.4432 17.8315 13.6588C17.8315 16.8743 15.2154 19.4903 11.9999 19.4903Z" fill="#444444"/>
<path d="M14.4882 4.09504C15.1599 4.09504 15.7063 3.54858 15.7063 2.8769C15.7063 2.20521 15.1599 1.65875 14.4882 1.65875C13.8165 1.65875 13.27 2.20521 13.27 2.8769C13.27 3.54858 13.8165 4.09504 14.4882 4.09504ZM14.4882 2.43629C14.7311 2.43629 14.9288 2.63394 14.9288 2.8769C14.9288 3.11985 14.7311 3.3175 14.4882 3.3175C14.2452 3.3175 14.0476 3.11985 14.0476 2.8769C14.0476 2.63394 14.2452 2.43629 14.4882 2.43629Z" fill="#444444"/>
<path d="M17.8055 4.09504C18.4772 4.09504 19.0237 3.54858 19.0237 2.8769C19.0237 2.20521 18.4772 1.65875 17.8055 1.65875C17.1339 1.65875 16.5874 2.20521 16.5874 2.8769C16.5874 3.54858 17.1339 4.09504 17.8055 4.09504ZM17.8055 2.43629C18.0485 2.43629 18.2461 2.63394 18.2461 2.8769C18.2461 3.11985 18.0485 3.3175 17.8055 3.3175C17.5626 3.3175 17.3649 3.11985 17.3649 2.8769C17.3649 2.63394 17.5626 2.43629 17.8055 2.43629Z" fill="#444444"/>
<path d="M5.77977 4.09504H11.1707C11.6137 4.09504 11.9742 3.73462 11.9742 3.29158V2.46221C11.9742 2.01917 11.6137 1.65875 11.1707 1.65875H5.77977C5.33673 1.65875 4.97632 2.01917 4.97632 2.46221V3.29158C4.97632 3.73462 5.33673 4.09504 5.77977 4.09504ZM5.75386 2.46221C5.75386 2.4479 5.76552 2.43629 5.77977 2.43629H11.1707C11.185 2.43629 11.1966 2.4479 11.1966 2.46221V3.29158C11.1966 3.30589 11.185 3.3175 11.1707 3.3175H5.77977C5.76552 3.3175 5.75386 3.30589 5.75386 3.29158V2.46221Z" fill="#444444"/>
<path d="M12.0001 8.70844C9.2705 8.70844 7.0498 10.9291 7.0498 13.6588C7.0498 16.3884 9.2705 18.6091 12.0001 18.6091C14.7298 18.6091 16.9505 16.3884 16.9505 13.6588C16.9505 10.9291 14.7298 8.70844 12.0001 8.70844ZM12.0001 17.8315C9.69924 17.8315 7.82734 15.9596 7.82734 13.6588C7.82734 11.3579 9.69924 9.48597 12.0001 9.48597C14.301 9.48597 16.1729 11.3579 16.1729 13.6588C16.1729 15.9596 14.301 17.8315 12.0001 17.8315Z" fill="#444444"/>
<path d="M12.0001 10.3672C11.7853 10.3672 11.6113 10.5413 11.6113 10.756C11.6113 10.9707 11.7853 11.1447 12.0001 11.1447C13.3863 11.1447 14.5141 12.2725 14.5141 13.6588C14.5141 13.8735 14.6881 14.0475 14.9029 14.0475C15.1177 14.0475 15.2917 13.8735 15.2917 13.6588C15.2917 11.8438 13.8151 10.3672 12.0001 10.3672Z" fill="#444444"/>
</svg>
