<svg width="54" height="54" viewBox="0 0 54 54" fill="none" xmlns="http://www.w3.org/2000/svg">
<g filter="url(#filter0_d_2503_17672)">
<path d="M26.2917 24.0417H30.9583C31.3715 24.0417 31.7181 23.9017 31.9981 23.6217C32.2781 23.3417 32.4176 22.9956 32.4167 22.5833C32.4167 22.1701 32.2767 21.8235 31.9967 21.5435C31.7167 21.2635 31.3706 21.124 30.9583 21.125H26.2917L27.6042 19.8125C27.8715 19.5451 28.0052 19.2049 28.0052 18.7917C28.0052 18.3785 27.8715 18.0382 27.6042 17.7708C27.3368 17.5035 26.9965 17.3698 26.5833 17.3698C26.1701 17.3698 25.8299 17.5035 25.5625 17.7708L21.7708 21.5625C21.4792 21.8542 21.3333 22.1944 21.3333 22.5833C21.3333 22.9722 21.4792 23.3125 21.7708 23.6042L25.5625 27.3958C25.8299 27.6632 26.1701 27.7969 26.5833 27.7969C26.9965 27.7969 27.3368 27.6632 27.6042 27.3958C27.8715 27.1285 28.0052 26.7882 28.0052 26.375C28.0052 25.9618 27.8715 25.6215 27.6042 25.3542L26.2917 24.0417ZM26.5833 37.1667C24.566 37.1667 22.6701 36.7836 20.8958 36.0175C19.1215 35.2514 17.5781 34.2126 16.2656 32.901C14.9531 31.5885 13.9143 30.0451 13.1492 28.2708C12.384 26.4965 12.001 24.6007 12 22.5833C12 20.566 12.3831 18.6701 13.1492 16.8958C13.9153 15.1215 14.9541 13.5781 16.2656 12.2656C17.5781 10.9531 19.1215 9.91431 20.8958 9.14917C22.6701 8.38403 24.566 8.00097 26.5833 8C28.6007 8 30.4965 8.38306 32.2708 9.14917C34.0451 9.91528 35.5885 10.9541 36.901 12.2656C38.2135 13.5781 39.2528 15.1215 40.019 16.8958C40.7851 18.6701 41.1676 20.566 41.1667 22.5833C41.1667 24.6007 40.7836 26.4965 40.0175 28.2708C39.2514 30.0451 38.2126 31.5885 36.901 32.901C35.5885 34.2135 34.0451 35.2528 32.2708 36.019C30.4965 36.7851 28.6007 37.1676 26.5833 37.1667ZM26.5833 34.25C29.8403 34.25 32.599 33.1198 34.8594 30.8594C37.1198 28.599 38.25 25.8403 38.25 22.5833C38.25 19.3264 37.1198 16.5677 34.8594 14.3073C32.599 12.0469 29.8403 10.9167 26.5833 10.9167C23.3264 10.9167 20.5677 12.0469 18.3073 14.3073C16.0469 16.5677 14.9167 19.3264 14.9167 22.5833C14.9167 25.8403 16.0469 28.599 18.3073 30.8594C20.5677 33.1198 23.3264 34.25 26.5833 34.25Z" fill="white"/>
</g>
<defs>
<filter id="filter0_d_2503_17672" x="0" y="0" width="53.1667" height="53.1667" filterUnits="userSpaceOnUse" color-interpolation-filters="sRGB">
<feFlood flood-opacity="0" result="BackgroundImageFix"/>
<feColorMatrix in="SourceAlpha" type="matrix" values="0 0 0 0 0 0 0 0 0 0 0 0 0 0 0 0 0 0 127 0" result="hardAlpha"/>
<feOffset dy="4"/>
<feGaussianBlur stdDeviation="6"/>
<feComposite in2="hardAlpha" operator="out"/>
<feColorMatrix type="matrix" values="0 0 0 0 0 0 0 0 0 0 0 0 0 0 0 0 0 0 0.35 0"/>
<feBlend mode="normal" in2="BackgroundImageFix" result="effect1_dropShadow_2503_17672"/>
<feBlend mode="normal" in="SourceGraphic" in2="effect1_dropShadow_2503_17672" result="shape"/>
</filter>
</defs>
</svg>
