<svg width="33" height="34" viewBox="0 0 33 34" fill="none" xmlns="http://www.w3.org/2000/svg">
<path d="M26.1286 24.0798C23.8597 24.0798 22.0139 25.9817 22.0139 28.3192C22.0139 30.6568 23.8598 32.5586 26.1286 32.5586C28.3975 32.5586 30.2433 30.6568 30.2433 28.3192C30.2433 25.9817 28.3975 24.0798 26.1286 24.0798ZM26.1286 30.015C25.2209 30.015 24.4827 29.2544 24.4827 28.3192C24.4827 27.384 25.2209 26.6235 26.1286 26.6235C27.0363 26.6235 27.7745 27.384 27.7745 28.3192C27.7745 29.2544 27.0363 30.015 26.1286 30.015Z" fill="#444444"/>
<path d="M32.7377 7.69486C32.504 7.38666 32.1455 7.2069 31.7658 7.2069H7.61969L6.50871 2.41766C6.37581 1.84536 5.87913 1.44135 5.308 1.44135H1.23441C0.552624 1.44128 0 2.01065 0 2.7131C0 3.41555 0.552624 3.98492 1.23441 3.98492H4.33366L8.3455 21.2801C8.47841 21.8528 8.97509 22.2564 9.54621 22.2564H28.7621C29.3295 22.2564 29.8241 21.8579 29.9602 21.2906L32.964 8.78433C33.0549 8.40455 32.9714 8.00305 32.7377 7.69486ZM27.7963 19.7128H10.5206L8.2097 9.75054H30.1885L27.7963 19.7128Z" fill="#444444"/>
<path d="M11.1921 24.0798C8.92321 24.0798 7.07739 25.9817 7.07739 28.3192C7.07739 30.6568 8.92328 32.5586 11.1921 32.5586C13.4609 32.5586 15.3068 30.6568 15.3068 28.3192C15.3068 25.9817 13.4609 24.0798 11.1921 24.0798ZM11.1921 30.015C10.2844 30.015 9.54622 29.2544 9.54622 28.3192C9.54622 27.384 10.2844 26.6235 11.1921 26.6235C12.0998 26.6235 12.838 27.384 12.838 28.3192C12.838 29.2544 12.0998 30.015 11.1921 30.015Z" fill="#444444"/>
</svg>
