<svg width="34" height="34" viewBox="0 0 34 34" fill="none" xmlns="http://www.w3.org/2000/svg">
<path d="M13.5999 3.39999H5.66668C4.42024 3.39999 3.3999 4.41999 3.3999 5.66677V13.6C3.3999 14.8468 4.42024 15.8668 5.66668 15.8668H13.5999C14.846 15.8668 15.8667 14.8468 15.8667 13.6V5.66677C15.8667 4.41999 14.846 3.39999 13.5999 3.39999ZM13.5999 13.6H5.66668V5.66677H13.5999V13.6Z" fill="white"/>
<path d="M13.5999 18.1336H5.66668C4.42024 18.1336 3.3999 19.1539 3.3999 20.4V28.3332C3.3999 29.5797 4.42024 30.6 5.66668 30.6H13.5999C14.846 30.6 15.8667 29.5797 15.8667 28.3332V20.4C15.8667 19.1539 14.846 18.1336 13.5999 18.1336ZM13.5999 28.3332H5.66668V20.4H13.5999V28.3332Z" fill="white"/>
<path d="M18.1333 3.39999H23.8001V5.66677H18.1333V3.39999Z" fill="white"/>
<path d="M18.1333 12.4668H26.0669V14.7336H18.1333V12.4668Z" fill="white"/>
<path d="M18.1333 7.93323H30.6001V10.2H18.1333V7.93323Z" fill="white"/>
<path d="M18.1333 18.1336H30.6001V20.4H18.1333V18.1336Z" fill="white"/>
<path d="M18.1333 27.2H26.0669V29.4668H18.1333V27.2Z" fill="white"/>
<path d="M18.1333 22.6668H23.8001V24.9332H18.1333V22.6668Z" fill="white"/>
</svg>
