<svg width="30" height="30" viewBox="0 0 30 30" fill="none" xmlns="http://www.w3.org/2000/svg">
<g clip-path="url(#clip0_2372_1293)">
<path d="M28.5377 11.0431H28.1489C27.7702 9.06347 25.8279 5.57802 24.968 4.10175C25.3712 3.81604 25.6362 3.33763 25.6362 2.79651C25.6362 1.92347 24.9467 1.21313 24.0994 1.21313C23.252 1.21313 22.5626 1.92341 22.5626 2.79651C22.5626 3.33763 22.8276 3.81604 23.2308 4.10175C22.371 5.57802 20.4287 9.06347 20.05 11.0431H19.6613C19.341 11.0431 19.0813 11.3106 19.0813 11.6407C19.0813 14.4915 21.3325 16.8109 24.0995 16.8109C26.8665 16.8109 29.1177 14.4915 29.1177 11.6407C29.1177 11.3106 28.8579 11.0431 28.5377 11.0431ZM24.0994 2.40839C24.3071 2.40839 24.4761 2.58253 24.4761 2.79651C24.4761 3.0105 24.3071 3.18458 24.0994 3.18458C23.8917 3.18458 23.7228 3.0105 23.7228 2.79651C23.7228 2.58253 23.8917 2.40839 24.0994 2.40839ZM24.0985 4.93378C25.08 6.64073 26.5958 9.48405 26.9687 11.0431H21.232C21.584 9.58337 22.9478 6.92632 24.0985 4.93378ZM24.0994 15.6157C22.1692 15.6157 20.5654 14.1476 20.2848 12.2383H27.9141C27.6335 14.1476 26.0298 15.6157 24.0994 15.6157Z" fill="#444444"/>
<path d="M19.7216 25.352H18.1882V23.8343C18.1882 23.5042 17.9285 23.2367 17.6082 23.2367H16.1351V6.54315C16.5145 6.15679 16.7589 5.62997 16.7872 5.04538L19.2398 4.50163C19.553 4.4322 19.7522 4.11432 19.6848 3.79165C19.6174 3.46897 19.3089 3.2639 18.9957 3.33315L16.5374 3.87825C16.1686 3.15684 15.4338 2.66354 14.589 2.66354C13.419 2.66354 12.4597 3.60901 12.3922 4.79729L6.25927 6.15702C5.97947 5.76274 5.52752 5.50599 5.01824 5.50599C4.17088 5.50599 3.48144 6.21626 3.48144 7.08936C3.48144 7.63048 3.74645 8.10895 4.14966 8.3946C3.28978 9.87087 1.34749 13.3563 0.968787 15.3359H0.580135C0.25967 15.3359 0 15.6034 0 15.9335C0 18.7844 2.25116 21.1038 5.01819 21.1038C7.78522 21.1038 10.0364 18.7844 10.0364 15.9335C10.0364 15.6034 9.77671 15.3359 9.45635 15.3359H9.0677C8.689 13.3563 6.74665 9.87087 5.88683 8.3946C6.23226 8.14985 6.476 7.76366 6.53885 7.3177L12.632 5.96683C12.7392 6.18093 12.8781 6.37546 13.0429 6.54327V23.2369H11.5699C11.2495 23.2369 10.9899 23.5044 10.9899 23.8345V25.3522H9.45641C9.13606 25.3522 8.87639 25.6197 8.87639 25.9498V28.1893C8.87639 28.5193 9.13606 28.7869 9.45641 28.7869H19.7216C20.0419 28.7869 20.3017 28.5193 20.3017 28.1893V25.9496C20.3017 25.6195 20.0419 25.352 19.7216 25.352ZM5.01819 6.70112C5.22588 6.70112 5.3949 6.87526 5.3949 7.08925C5.3949 7.30323 5.22588 7.47731 5.01819 7.47731C4.8105 7.47731 4.64148 7.30323 4.64148 7.08925C4.64148 6.87526 4.8105 6.70112 5.01819 6.70112ZM5.01819 19.9084C3.08789 19.9084 1.48415 18.4404 1.20355 16.531H8.83283C8.55223 18.4404 6.94848 19.9084 5.01819 19.9084ZM7.88741 15.3358H2.15078C2.50281 13.8761 3.86662 11.2191 5.01733 9.22651C5.9988 10.9334 7.51457 13.7767 7.88741 15.3358ZM14.589 3.85862C15.163 3.85862 15.6299 4.33968 15.6299 4.93106C15.6299 5.52245 15.163 6.0035 14.589 6.0035C14.0151 6.0035 13.5481 5.52245 13.5481 4.93106C13.5481 4.33968 14.015 3.85862 14.589 3.85862ZM14.9751 7.16319V23.2367H14.2029V7.16313C14.3284 7.18616 14.4573 7.19882 14.5891 7.19882C14.7209 7.19882 14.8497 7.1861 14.9751 7.16319ZM12.1499 24.4319H17.0281V25.352H12.1499V24.4319ZM19.1416 27.5916H10.0364V26.5472H19.1416V27.5916Z" fill="#444444"/>
<path d="M21.919 3.33329C21.8516 3.01062 21.543 2.80536 21.2298 2.8748L20.8072 2.96849C20.494 3.03792 20.2948 3.35579 20.3622 3.67847C20.4208 3.95878 20.6612 4.15044 20.9287 4.15044C20.9691 4.15044 21.0102 4.14611 21.0513 4.13696L21.474 4.04327C21.787 3.97384 21.9864 3.65597 21.919 3.33329Z" fill="#444444"/>
</g>
<defs>
<clipPath id="clip0_2372_1293">
<rect width="29.1176" height="30" fill="white"/>
</clipPath>
</defs>
</svg>
