<svg width="30" height="30" viewBox="0 0 30 30" fill="none" xmlns="http://www.w3.org/2000/svg">
<g clip-path="url(#clip0_2372_1291)">
<path d="M29.9194 11.4881C29.6883 10.7768 28.9977 10.2878 28.0251 10.1464L20.3111 9.02546L16.8613 2.03552C16.4263 1.15403 15.7478 0.648529 14.9999 0.648529C14.252 0.648529 13.5736 1.15408 13.1386 2.03552L9.68898 9.0254L1.97499 10.1464C1.0022 10.2878 0.311779 10.7767 0.080623 11.4881C-0.150474 12.1994 0.120643 13.0009 0.824482 13.6869L6.40633 19.1278L5.08859 26.8108C4.91533 27.8213 5.20965 28.4257 5.48704 28.7547C5.81153 29.1395 6.28492 29.3515 6.82001 29.3515C7.2246 29.3515 7.65539 29.2329 8.1003 28.9989L15 25.3715L21.8996 28.9988C22.3447 29.2328 22.7754 29.3515 23.1801 29.3515C23.7153 29.3515 24.1887 29.1395 24.5132 28.7546C24.7906 28.4256 25.0849 27.8213 24.9116 26.8106L23.5936 19.1278L29.1755 13.687C29.8793 13.0009 30.1505 12.1995 29.9194 11.4881ZM27.9485 12.4282L22.0357 18.1916C21.8285 18.3935 21.734 18.6844 21.7829 18.9696L23.179 27.1078C23.2239 27.3699 23.2011 27.527 23.1799 27.5936C23.1269 27.5935 22.9761 27.5787 22.7177 27.4429L15.409 23.6005C15.281 23.5332 15.1405 23.4996 15.0001 23.4996C14.8596 23.4996 14.7191 23.5332 14.5911 23.6005L7.28232 27.4429C7.02427 27.5786 6.8735 27.5935 6.82042 27.5936C6.79915 27.527 6.77635 27.3699 6.82129 27.1078L8.21714 18.9695C8.266 18.6844 8.17149 18.3935 7.96436 18.1915L2.05157 12.428C1.8609 12.2422 1.78702 12.1016 1.76522 12.0353C1.82176 11.9946 1.96421 11.9243 2.22782 11.8859L10.3992 10.6985C10.6855 10.6568 10.9329 10.477 11.061 10.2176L14.7152 2.81331C14.8329 2.57459 14.9439 2.46086 15.0001 2.41961C15.0564 2.46086 15.1673 2.57459 15.2851 2.81337L18.9394 10.2176C19.0675 10.477 19.3148 10.6568 19.6011 10.6985L27.7724 11.8859C28.036 11.9242 28.1784 11.9946 28.2349 12.0353C28.213 12.1016 28.1391 12.2423 27.9485 12.4282Z" fill="#444444"/>
</g>
<defs>
<clipPath id="clip0_2372_1291">
<rect width="30" height="30" fill="white"/>
</clipPath>
</defs>
</svg>
