<svg width="22" height="22" viewBox="0 0 22 22" fill="none" xmlns="http://www.w3.org/2000/svg">
<path fill-rule="evenodd" clip-rule="evenodd" d="M15.84 7.79068C15.84 3.49022 12.2918 0 7.92 0C3.54816 0 0 3.49022 0 7.79068C0 12.0911 3.54816 15.5814 7.92 15.5814C12.2918 15.5814 15.84 12.0911 15.84 7.79068ZM22 20.7751L15.3868 13.9115L14.1425 15.1356L20.7548 22L22 20.7751ZM8 14C11.3137 14 14 11.3137 14 8C14 4.68629 11.3137 2 8 2C4.68629 2 2 4.68629 2 8C2 11.3137 4.68629 14 8 14Z" fill="white"/>
</svg>
