<svg width="20" height="20" viewBox="0 0 20 20" fill="none" xmlns="http://www.w3.org/2000/svg">
<g clip-path="url(#clip0_2372_1249)">
<path d="M10 20C15.5228 20 20 15.5228 20 10C20 4.47715 15.5228 0 10 0C4.47715 0 0 4.47715 0 10C0 15.5228 4.47715 20 10 20Z" fill="url(#paint0_linear_2372_1249)"/>
<path fill-rule="evenodd" clip-rule="evenodd" d="M4.52661 9.89446C7.4418 8.62435 9.38575 7.787 10.3584 7.38247C13.1355 6.22739 13.7125 6.02673 14.0886 6.02009C14.1714 6.01864 14.3563 6.03915 14.4761 6.13638C14.6539 6.2806 14.6549 6.59364 14.6352 6.80083C14.4847 8.38208 13.8335 12.2193 13.5022 13.9903C13.362 14.7397 13.086 14.991 12.8188 15.0156C12.2381 15.069 11.7971 14.6318 11.2347 14.2631C10.3545 13.6861 9.85731 13.327 9.00298 12.764C8.01567 12.1134 8.65571 11.7558 9.21837 11.1714C9.36563 11.0185 11.9243 8.69118 11.9738 8.48005C11.98 8.45364 11.9857 8.35521 11.9273 8.30325C11.8688 8.2513 11.7825 8.26903 11.7202 8.28317C11.632 8.30321 10.2259 9.23255 7.50219 11.0711C7.10309 11.3452 6.74161 11.4787 6.41774 11.4717C6.06067 11.464 5.37387 11.2699 4.86329 11.1039C4.23704 10.9003 3.7393 10.7927 3.78266 10.447C3.80524 10.2668 4.05321 10.0827 4.52661 9.89446Z" fill="white"/>
</g>
<defs>
<linearGradient id="paint0_linear_2372_1249" x1="10" y1="0" x2="10" y2="19.8438" gradientUnits="userSpaceOnUse">
<stop stop-color="#2AABEE"/>
<stop offset="1" stop-color="#229ED9"/>
</linearGradient>
<clipPath id="clip0_2372_1249">
<rect width="20" height="20" fill="white"/>
</clipPath>
</defs>
</svg>
