<svg width="30" height="30" viewBox="0 0 30 30" fill="none" xmlns="http://www.w3.org/2000/svg">
<path d="M14.3513 14.4511C16.2782 14.4511 17.9466 13.7391 19.3101 12.3342C20.6732 10.9295 21.3646 9.21087 21.3646 7.22533C21.3646 5.24047 20.6735 3.52157 19.3099 2.11647C17.9463 0.71205 16.278 0 14.3513 0C12.4241 0 10.756 0.71205 9.39268 2.1167C8.02934 3.52134 7.33801 5.24024 7.33801 7.22533C7.33801 9.21087 8.02934 10.9298 9.39268 12.3344C10.7565 13.7388 12.4248 14.4511 14.3513 14.4511ZM10.5994 3.35975C11.6455 2.28195 12.8727 1.75804 14.3513 1.75804C15.8297 1.75804 17.0571 2.28195 18.1034 3.35975C19.1495 4.43778 19.6582 5.70235 19.6582 7.22533C19.6582 8.74876 19.1495 10.0131 18.1034 11.0911C17.0571 12.1692 15.8297 12.6931 14.3513 12.6931C12.8731 12.6931 11.6459 12.1689 10.5994 11.0911C9.55307 10.0133 9.04435 8.74876 9.04435 7.22533C9.04435 5.70235 9.55307 4.43778 10.5994 3.35975Z" fill="#444444"/>
<path d="M26.6227 23.0685C26.5834 22.4839 26.5038 21.8463 26.3867 21.1729C26.2686 20.4945 26.1164 19.8532 25.9342 19.267C25.7458 18.6612 25.4902 18.0629 25.1736 17.4895C24.8455 16.8944 24.4598 16.3762 24.0271 15.9498C23.5746 15.5038 23.0205 15.1451 22.3798 14.8835C21.7414 14.6232 21.0338 14.4914 20.277 14.4914C19.9797 14.4914 19.6923 14.6171 19.1371 14.9895C18.7954 15.219 18.3958 15.4845 17.9497 15.7782C17.5683 16.0286 17.0516 16.2632 16.4133 16.4756C15.7906 16.6832 15.1584 16.7885 14.5342 16.7885C13.9104 16.7885 13.2781 16.6832 12.655 16.4756C12.0174 16.2634 11.5005 16.0288 11.1197 15.7784C10.6779 15.4875 10.278 15.222 9.93121 14.9892C9.3765 14.6168 9.08904 14.4912 8.7918 14.4912C8.03471 14.4912 7.32739 14.6232 6.68915 14.8837C6.04892 15.1449 5.49465 15.5035 5.04169 15.9501C4.60894 16.3767 4.22329 16.8947 3.89539 17.4895C3.57927 18.0629 3.32336 18.6609 3.13497 19.2672C2.95303 19.8534 2.80086 20.4945 2.68268 21.1729C2.56538 21.8454 2.48607 22.4833 2.44675 23.0692C2.4081 23.6421 2.38855 24.2383 2.38855 24.8407C2.38855 26.4067 2.87173 27.6745 3.82453 28.6095C4.76555 29.5321 6.01048 30 7.52488 30H21.5452C23.0592 30 24.3041 29.5321 25.2453 28.6095C26.1984 27.6752 26.6815 26.407 26.6815 24.8405C26.6813 24.236 26.6615 23.6398 26.6227 23.0685ZM24.0688 27.3358C23.447 27.9455 22.6215 28.2419 21.545 28.2419H7.52488C6.44812 28.2419 5.62261 27.9455 5.00103 27.336C4.39123 26.7379 4.09488 25.9215 4.09488 24.8407C4.09488 24.2786 4.11288 23.7236 4.14887 23.1907C4.18397 22.668 4.25572 22.0937 4.36213 21.4835C4.46721 20.8809 4.60094 20.3153 4.76 19.8033C4.91262 19.3123 5.12077 18.8262 5.37891 18.3579C5.62528 17.9116 5.90874 17.5287 6.22153 17.2201C6.5141 16.9315 6.88287 16.6953 7.31739 16.5182C7.71926 16.3543 8.17089 16.2646 8.66118 16.251C8.72094 16.2838 8.82735 16.3463 8.99973 16.4621C9.35051 16.6976 9.75482 16.9663 10.2018 17.2604C10.7056 17.5914 11.3547 17.8903 12.1303 18.1482C12.9231 18.4124 13.7318 18.5465 14.5344 18.5465C15.337 18.5465 16.1459 18.4124 16.9383 18.1485C17.7145 17.8901 18.3634 17.5914 18.8679 17.26C19.3253 16.9588 19.7183 16.6978 20.069 16.4621C20.2414 16.3465 20.3478 16.2838 20.4076 16.251C20.8981 16.2646 21.3497 16.3543 21.7518 16.5182C22.1861 16.6953 22.5549 16.9317 22.8475 17.2201C23.1602 17.5284 23.4437 17.9114 23.6901 18.3581C23.9484 18.8262 24.1568 19.3126 24.3092 19.8031C24.4685 20.3158 24.6024 20.8811 24.7073 21.4833C24.8135 22.0946 24.8855 22.6691 24.9206 23.191V23.1914C24.9568 23.7222 24.975 24.277 24.9752 24.8407C24.975 25.9217 24.6786 26.7379 24.0688 27.3358Z" fill="#444444"/>
</svg>
