<svg width="20" height="20" viewBox="0 0 20 20" fill="none" xmlns="http://www.w3.org/2000/svg">
<g clip-path="url(#clip0_2372_1237)">
<path d="M10 20C15.5228 20 20 15.5228 20 10C20 4.47715 15.5228 0 10 0C4.47715 0 0 4.47715 0 10C0 15.5228 4.47715 20 10 20Z" fill="#6F3FAA"/>
<path d="M15.7761 6.75569V6.74092C15.642 6.19773 15.292 5.63637 14.8329 5.16364C14.2965 4.6091 13.6136 4.17387 12.9613 4.03296H12.9477C11.0025 3.66024 9.00423 3.66024 7.05905 4.03296H7.04541C5.83405 4.29546 4.51928 5.56137 4.2261 6.74092V6.75569C3.86588 8.39101 3.86588 10.0851 4.2261 11.7205V11.7341C4.43519 12.575 5.16246 13.4591 6.0011 13.9932C6.27498 14.1717 6.5731 14.3098 6.88632 14.4034V15.7193C6.88676 15.8245 6.91851 15.9271 6.97751 16.0142C7.03651 16.1012 7.12009 16.1688 7.21761 16.2081C7.31512 16.2475 7.42215 16.257 7.52506 16.2353C7.62796 16.2136 7.72208 16.1617 7.79541 16.0864L9.1295 14.7C9.41814 14.7159 9.70905 14.725 9.99769 14.725C10.9857 14.7247 11.9715 14.6311 12.942 14.4455H12.9556C14.1636 14.1818 15.4795 12.9159 15.7704 11.7364V11.7227C16.1328 10.0871 16.1348 8.39215 15.7761 6.75569ZM14.7204 11.4773C14.525 12.2466 13.5272 13.2046 12.7329 13.3807C11.7012 13.5783 10.6512 13.664 9.60109 13.6364C9.59087 13.6357 9.58064 13.6375 9.57118 13.6414C9.56173 13.6453 9.5533 13.6514 9.54655 13.6591L8.57269 14.6591L7.53632 15.7216C7.51974 15.7391 7.49829 15.7513 7.47473 15.7565C7.45117 15.7616 7.4266 15.7596 7.40419 15.7507C7.38179 15.7418 7.36258 15.7263 7.34906 15.7063C7.33554 15.6863 7.32833 15.6628 7.32837 15.6386V13.4568C7.32839 13.4393 7.32227 13.4223 7.31106 13.4088C7.29985 13.3953 7.28426 13.3862 7.267 13.383C7.10133 13.3436 6.9416 13.2825 6.792 13.2011C6.117 12.8409 5.43632 12.1023 5.2795 11.4773C4.95468 9.99908 4.95468 8.46798 5.2795 6.98978C5.47382 6.22387 6.47723 5.26819 7.26587 5.09092C9.07184 4.74536 10.9269 4.74536 12.7329 5.09092C13.1704 5.18864 13.6704 5.5216 14.0613 5.93069C14.3829 6.26364 14.6295 6.64773 14.7204 6.99319C15.0447 8.47029 15.0447 10.0002 14.7204 11.4773Z" fill="white"/>
<path d="M12.7613 11.5909C12.6137 11.9279 12.3598 12.2072 12.0386 12.3864C11.9378 12.4292 11.8331 12.4623 11.7261 12.4852C11.6045 12.4489 11.4886 12.4239 11.3852 12.3796C10.5238 12.0444 9.72185 11.5728 9.01017 10.983C8.79877 10.8027 8.60018 10.6079 8.41585 10.4C7.96067 9.87583 7.57842 9.29252 7.27949 8.66593C7.13403 8.36934 7.01131 8.06252 6.88631 7.75684C6.77267 7.47843 6.94085 7.18866 7.11358 6.9807C7.28265 6.78784 7.49062 6.63293 7.72381 6.52616C7.80587 6.48492 7.89977 6.4737 7.98923 6.49446C8.07869 6.51521 8.15807 6.56663 8.21358 6.63979C8.50392 6.96599 8.75982 7.32128 8.97722 7.70002C9.0457 7.81014 9.06915 7.94241 9.0427 8.06937C9.01625 8.19632 8.94193 8.30822 8.83517 8.38184C8.77835 8.42161 8.72153 8.46706 8.67267 8.51138C8.6245 8.54706 8.58296 8.5909 8.54994 8.64093C8.52145 8.68775 8.50417 8.74052 8.49944 8.79512C8.49471 8.84972 8.50266 8.90468 8.52267 8.9557C8.74199 9.55911 9.07494 10.0625 9.57267 10.4159C9.74111 10.535 9.92259 10.6345 10.1136 10.7125C10.2383 10.7803 10.3784 10.8148 10.5204 10.8125C10.7681 10.783 10.8499 10.5091 11.0227 10.3682C11.102 10.3033 11.2001 10.2657 11.3024 10.261C11.4048 10.2563 11.5059 10.2847 11.5909 10.3421C11.7749 10.4557 11.9522 10.5841 12.1295 10.7091C12.3048 10.8288 12.4736 10.9577 12.6352 11.0955C12.7107 11.1504 12.7647 11.2299 12.7877 11.3204C12.8108 11.4109 12.8014 11.5066 12.7613 11.5909Z" fill="white"/>
<path d="M10.3261 6.14545H10.1807C10.2273 6.14318 10.2761 6.14545 10.3261 6.14545Z" fill="white"/>
<path d="M12.8408 9.55114C12.7272 9.55114 12.6715 9.45455 12.6636 9.34887C12.6488 9.14092 12.6374 8.93182 12.609 8.72501C12.5599 8.37606 12.4384 8.04124 12.2522 7.74205C12.0608 7.43037 11.8062 7.16231 11.5048 6.95521C11.2033 6.74811 10.8618 6.60658 10.5022 6.53978C10.3386 6.51023 10.1715 6.50342 10.0067 6.48637C9.90219 6.47501 9.76469 6.46819 9.74196 6.33864C9.73856 6.31348 9.74058 6.28789 9.74786 6.26357C9.75515 6.23925 9.76755 6.21676 9.78422 6.19762C9.80089 6.17847 9.82146 6.1631 9.84454 6.15254C9.86763 6.14198 9.89271 6.13647 9.9181 6.13637C9.94535 6.1348 9.97266 6.1348 9.99991 6.13637C10.4966 6.14057 10.9846 6.26721 11.4207 6.50507C11.8568 6.74293 12.2275 7.08467 12.4999 7.50001C12.715 7.83478 12.861 8.20915 12.9295 8.60114C12.9726 8.8466 12.9886 9.09887 13.0079 9.34887C13.0117 9.37337 13.0104 9.39842 13.0038 9.42235C12.9973 9.44628 12.9858 9.46855 12.97 9.48767C12.9542 9.5068 12.9345 9.52235 12.9122 9.53329C12.89 9.54424 12.8656 9.55032 12.8408 9.55114Z" fill="white"/>
<path d="M12.2261 9.02047C12.2254 9.05422 12.2209 9.08779 12.2124 9.12048C12.2025 9.15333 12.1827 9.18233 12.1557 9.20353C12.1287 9.22473 12.0959 9.2371 12.0616 9.23896C12.0273 9.24083 11.9933 9.23209 11.9642 9.21394C11.9351 9.19579 11.9122 9.16911 11.8988 9.13752C11.8863 9.09163 11.8806 9.04416 11.8818 8.99661C11.8844 8.74244 11.8341 8.4905 11.734 8.25684C11.7113 8.20684 11.6863 8.1557 11.6579 8.10684C11.4952 7.82647 11.2538 7.60005 10.9636 7.4557C10.7885 7.37303 10.6025 7.31564 10.4113 7.28525C10.3272 7.27161 10.2431 7.26366 10.159 7.25229C10.1371 7.25119 10.1157 7.24562 10.0961 7.23591C10.0764 7.22619 10.059 7.21256 10.0448 7.19583C10.0306 7.17911 10.0201 7.15966 10.0137 7.13869C10.0074 7.11771 10.0054 7.09565 10.0079 7.07388C10.0079 7.05161 10.0126 7.0296 10.0217 7.00928C10.0309 6.98896 10.0442 6.97081 10.0608 6.956C10.0774 6.94119 10.097 6.93006 10.1183 6.92336C10.1395 6.91665 10.1619 6.9145 10.184 6.91707C10.5177 6.92994 10.8446 7.01525 11.142 7.16707C11.5052 7.34982 11.8014 7.6425 11.9886 8.00343C12.094 8.21417 12.1646 8.44058 12.1977 8.67388C12.2038 8.70431 12.2083 8.73503 12.2113 8.76593C12.217 8.83411 12.2193 8.90229 12.2249 8.98638C12.2249 8.99434 12.2261 9.00457 12.2261 9.02047Z" fill="white"/>
<path d="M11.4477 8.86366C11.4413 8.89246 11.4264 8.91869 11.4049 8.93894C11.3834 8.95919 11.3564 8.97255 11.3273 8.97729H11.3023C11.265 8.9797 11.228 8.96992 11.1969 8.94941C11.1657 8.92891 11.1421 8.8988 11.1295 8.86366C11.1225 8.84502 11.1179 8.82553 11.1159 8.8057C11.1099 8.72923 11.0985 8.65329 11.0818 8.57843C11.048 8.42689 10.9619 8.2921 10.8386 8.19775C10.779 8.15495 10.7125 8.12266 10.642 8.10229C10.5523 8.07616 10.4579 8.08298 10.3693 8.06138C10.3255 8.05362 10.2865 8.02881 10.261 7.99239C10.2354 7.95597 10.2253 7.91091 10.2329 7.86707C10.2414 7.82507 10.2649 7.7876 10.299 7.76166C10.3331 7.73573 10.3754 7.7231 10.4182 7.72616C10.9386 7.76366 11.3273 8.01366 11.4273 8.57161C11.4375 8.62341 11.4448 8.67578 11.4488 8.72843C11.4552 8.77331 11.4548 8.81889 11.4477 8.86366Z" fill="white"/>
</g>
<defs>
<clipPath id="clip0_2372_1237">
<rect width="20" height="20" fill="white"/>
</clipPath>
</defs>
</svg>
