<svg width="19" height="20" viewBox="0 0 19 20" fill="none" xmlns="http://www.w3.org/2000/svg">
<path d="M9.5 20C14.7467 20 19 15.5228 19 10C19 4.47715 14.7467 0 9.5 0C4.25329 0 0 4.47715 0 10C0 15.5228 4.25329 20 9.5 20Z" fill="#29A71A"/>
<path d="M13.6887 5.59091C12.7003 4.54011 11.3877 3.89569 9.98767 3.77389C8.58765 3.65209 7.19236 4.06092 6.05348 4.92664C4.91461 5.79236 4.10711 7.05798 3.77665 8.49522C3.44619 9.93245 3.61452 11.4467 4.25128 12.7648L3.62622 15.9591C3.61974 15.9909 3.61955 16.0237 3.62568 16.0556C3.63181 16.0875 3.64412 16.1177 3.66185 16.1443C3.68781 16.1847 3.72487 16.2159 3.76808 16.2335C3.81129 16.2512 3.85859 16.2546 3.90367 16.2432L6.87781 15.5011C8.12648 16.1544 9.55485 16.3202 10.9087 15.969C12.2626 15.6178 13.4543 14.7724 14.2716 13.5831C15.0889 12.3939 15.4789 10.938 15.3721 9.47453C15.2654 8.01105 14.6688 6.63488 13.6887 5.59091ZM12.7613 13.3818C12.0775 14.0997 11.1968 14.5735 10.2436 14.7366C9.29031 14.8997 8.31246 14.7438 7.44781 14.2909L7.03327 14.075L5.20992 14.5295L5.21531 14.5057L5.59316 12.5739L5.3902 12.1523C4.94841 11.2389 4.79256 10.2019 4.94498 9.18959C5.0974 8.17732 5.55028 7.2418 6.23872 6.51705C7.10377 5.60675 8.27686 5.09538 9.50003 5.09538C10.7232 5.09538 11.8963 5.60675 12.7613 6.51705C12.7687 6.52594 12.7766 6.53429 12.7851 6.54205C13.6394 7.45468 14.1163 8.68583 14.1119 9.96708C14.1074 11.2483 13.622 12.4758 12.7613 13.3818Z" fill="white"/>
<path d="M12.5994 11.9648C12.3759 12.3352 12.0229 12.7886 11.5792 12.9011C10.802 13.0989 9.60907 12.9079 8.1247 11.4511L8.10635 11.4341C6.80118 10.1602 6.4622 9.09999 6.54424 8.25908C6.58959 7.78181 6.96743 7.34999 7.28589 7.06817C7.33624 7.02294 7.39595 6.99073 7.46023 6.97413C7.52452 6.95753 7.59161 6.957 7.65613 6.97257C7.72064 6.98814 7.78081 7.01938 7.8318 7.06381C7.8828 7.10823 7.92321 7.1646 7.94981 7.2284L8.43021 8.36476C8.46143 8.43845 8.473 8.51968 8.46368 8.59976C8.45436 8.67984 8.4245 8.75574 8.37731 8.81931L8.13441 9.15113C8.0823 9.21964 8.05085 9.303 8.04411 9.39049C8.03738 9.47798 8.05567 9.56558 8.09663 9.64204C8.23265 9.89317 8.55868 10.2625 8.92032 10.6045C9.32623 10.9909 9.7764 11.3443 10.0614 11.4648C10.1377 11.4976 10.2215 11.5056 10.3021 11.4877C10.3827 11.4699 10.4565 11.4271 10.5137 11.3648L10.7955 11.0659C10.8499 11.0095 10.9175 10.9692 10.9914 10.9493C11.0654 10.9293 11.1431 10.9303 11.2165 10.9523L12.3576 11.2932C12.4205 11.3135 12.4782 11.3487 12.5263 11.3961C12.5743 11.4435 12.6114 11.5018 12.6347 11.5666C12.6581 11.6314 12.667 11.701 12.6609 11.77C12.6548 11.839 12.6337 11.9056 12.5994 11.9648Z" fill="white"/>
</svg>
