<svg width="21" height="19" viewBox="0 0 21 19" fill="none" xmlns="http://www.w3.org/2000/svg">
<g clip-path="url(#clip0_2503_17605)">
<path d="M16.6272 13.4564C15.1834 13.4564 14.0088 14.5192 14.0088 15.8255C14.0088 17.1318 15.1834 18.1945 16.6272 18.1945C18.071 18.1945 19.2457 17.1318 19.2457 15.8255C19.2457 14.5192 18.071 13.4564 16.6272 13.4564ZM16.6272 16.7731C16.0496 16.7731 15.5799 16.3481 15.5799 15.8255C15.5799 15.3029 16.0496 14.8778 16.6272 14.8778C17.2049 14.8778 17.6746 15.3029 17.6746 15.8255C17.6746 16.3481 17.2049 16.7731 16.6272 16.7731Z" fill="#444444"/>
<path d="M20.8331 4.30006C20.6843 4.12783 20.4563 4.02738 20.2146 4.02738H4.8489L4.14191 1.35104C4.05733 1.03123 3.74126 0.80545 3.37782 0.80545H0.785536C0.35167 0.805413 0 1.12359 0 1.51614C0 1.90868 0.35167 2.22686 0.785536 2.22686H2.75778L5.31078 11.8918C5.39535 12.2119 5.71142 12.4374 6.07486 12.4374H18.3031C18.6642 12.4374 18.9789 12.2147 19.0656 11.8977L20.9771 4.90888C21.0349 4.69665 20.9818 4.47229 20.8331 4.30006ZM17.6885 11.016H6.6949L5.22436 5.44882H19.2109L17.6885 11.016Z" fill="#444444"/>
<path d="M7.12236 13.4564C5.67852 13.4564 4.50391 14.5192 4.50391 15.8255C4.50391 17.1318 5.67856 18.1945 7.12236 18.1945C8.56616 18.1945 9.74081 17.1318 9.74081 15.8255C9.74081 14.5192 8.56616 13.4564 7.12236 13.4564ZM7.12236 16.7731C6.54473 16.7731 6.07498 16.3481 6.07498 15.8255C6.07498 15.3029 6.54473 14.8778 7.12236 14.8778C7.69999 14.8778 8.16974 15.3029 8.16974 15.8255C8.16974 16.3481 7.69999 16.7731 7.12236 16.7731Z" />
</g>
<defs>
<clipPath id="clip0_2503_17605">
<rect width="21" height="19" fill="white"/>
</clipPath>
</defs>
</svg>
