  <svg width="22" height="22" viewBox="0 0 22 22" fill="none" xmlns="http://www.w3.org/2000/svg">
  <path d="M8.79995 2.20001H3.66669C2.86017 2.20001 2.19995 2.86001 2.19995 3.66675V8.80001C2.19995 9.60675 2.86017 10.2668 3.66669 10.2668H8.79995C9.60625 10.2668 10.2667 9.60675 10.2667 8.80001V3.66675C10.2667 2.86001 9.60625 2.20001 8.79995 2.20001ZM8.79995 8.80001H3.66669V3.66675H8.79995V8.80001Z" />
  <path d="M8.79995 11.7335H3.66669C2.86017 11.7335 2.19995 12.3937 2.19995 13.2V18.3333C2.19995 19.1398 2.86017 19.8 3.66669 19.8H8.79995C9.60625 19.8 10.2667 19.1398 10.2667 18.3333V13.2C10.2667 12.3937 9.60625 11.7335 8.79995 11.7335ZM8.79995 18.3333H3.66669V13.2H8.79995V18.3333Z" />
  <path d="M11.7332 2.20001H15.3999V3.66675H11.7332V2.20001Z" />
  <path d="M11.7332 8.06674H16.8666V9.53348H11.7332V8.06674Z" />
  <path d="M11.7332 5.13327H19.7999V6.60001H11.7332V5.13327Z" />
  <path d="M11.7332 11.7335H19.7999V13.2H11.7332V11.7335Z" />
  <path d="M11.7332 17.6H16.8666V19.0667H11.7332V17.6Z" />
  <path d="M11.7332 14.6667H15.3999V16.1333H11.7332V14.6667Z" />
  </svg>
