<svg width="18" height="19" viewBox="0 0 18 19" fill="none" xmlns="http://www.w3.org/2000/svg">
<g clip-path="url(#clip0_2503_17620)">
<path d="M17.6414 6.99393H17.4011C17.167 5.74019 15.9663 3.53274 15.4347 2.59777C15.6839 2.41682 15.8478 2.11382 15.8478 1.77112C15.8478 1.21819 15.4216 0.768311 14.8977 0.768311C14.3739 0.768311 13.9477 1.21815 13.9477 1.77112C13.9477 2.11382 14.1116 2.41682 14.3608 2.59777C13.8293 3.53274 12.6286 5.74019 12.3945 6.99393H12.1542C11.9562 6.99393 11.7957 7.16337 11.7957 7.37241C11.7957 9.17796 13.1873 10.6469 14.8978 10.6469C16.6083 10.6469 18 9.17796 18 7.37241C18 7.16337 17.8394 6.99393 17.6414 6.99393ZM14.8978 1.5253C15.0262 1.5253 15.1306 1.63559 15.1306 1.77112C15.1306 1.90664 15.0262 2.01689 14.8978 2.01689C14.7694 2.01689 14.6649 1.90664 14.6649 1.77112C14.6649 1.63559 14.7693 1.5253 14.8978 1.5253ZM14.8972 3.12472C15.504 4.20579 16.441 6.00656 16.6715 6.99393H13.1252C13.3428 6.06946 14.1859 4.38666 14.8972 3.12472ZM14.8978 9.88994C13.7045 9.88994 12.7131 8.96017 12.5396 7.75088H17.2559C17.0825 8.96017 16.0911 9.88994 14.8978 9.88994Z" />
<path d="M12.1916 16.0563H11.2436V15.0951C11.2436 14.886 11.083 14.7166 10.885 14.7166H9.97443V4.14401C10.209 3.89931 10.36 3.56566 10.3775 3.19542L11.8937 2.85104C12.0873 2.80707 12.2105 2.60575 12.1688 2.40139C12.1271 2.19703 11.9364 2.06714 11.7428 2.11101L10.2231 2.45623C9.99513 1.99934 9.54091 1.68692 9.01863 1.68692C8.29536 1.68692 7.70235 2.28572 7.66062 3.0383L3.86937 3.89946C3.6964 3.64975 3.41701 3.48713 3.10219 3.48713C2.57836 3.48713 2.15216 3.93697 2.15216 4.48994C2.15216 4.83264 2.31599 5.13568 2.56525 5.31659C2.03368 6.25156 0.832992 8.45901 0.598887 9.71275H0.358629C0.160523 9.71275 0 9.88219 0 10.0912C0 11.8968 1.39162 13.3657 3.10215 13.3657C4.81268 13.3657 6.2043 11.8968 6.2043 10.0912C6.2043 9.88219 6.04378 9.71275 5.84575 9.71275H5.60549C5.37138 8.45897 4.17066 6.25156 3.63913 5.31659C3.85267 5.16158 4.00335 4.91699 4.0422 4.63456L7.80887 3.779C7.87514 3.9146 7.96103 4.0378 8.06287 4.14408V14.7167H7.15229C6.95426 14.7167 6.79373 14.8861 6.79373 15.0952V16.0564H5.84578C5.64775 16.0564 5.48722 16.2258 5.48722 16.4349V17.8532C5.48722 18.0622 5.64775 18.2317 5.84578 18.2317H12.1916C12.3896 18.2317 12.5501 18.0622 12.5501 17.8532V16.4347C12.5501 16.2257 12.3896 16.0563 12.1916 16.0563ZM3.10215 4.24405C3.23054 4.24405 3.33503 4.35434 3.33503 4.48987C3.33503 4.62539 3.23054 4.73564 3.10215 4.73564C2.97376 4.73564 2.86928 4.62539 2.86928 4.48987C2.86928 4.35434 2.97376 4.24405 3.10215 4.24405ZM3.10215 12.6087C1.90888 12.6087 0.917473 11.6789 0.744012 10.4696H5.46029C5.28683 11.6789 4.29543 12.6087 3.10215 12.6087ZM4.87586 9.71268H1.32957C1.54719 8.78821 2.39027 7.10541 3.10162 5.84347C3.70835 6.9245 4.64537 8.72527 4.87586 9.71268ZM9.01867 2.4438C9.3735 2.4438 9.66213 2.74847 9.66213 3.12302C9.66213 3.49756 9.37346 3.80223 9.01867 3.80223C8.66387 3.80223 8.3752 3.49756 8.3752 3.12302C8.3752 2.74847 8.66384 2.4438 9.01867 2.4438ZM9.25734 4.5367V14.7166H8.77999V4.53666C8.85755 4.55124 8.93721 4.55926 9.0187 4.55926C9.1002 4.55926 9.17979 4.55121 9.25734 4.5367ZM7.51082 15.4735H10.5265V16.0563H7.51082V15.4735ZM11.833 17.4747H6.20434V16.8132H11.833V17.4747Z" />
<path d="M13.5498 2.11106C13.5082 1.9067 13.3174 1.77671 13.1238 1.82068L12.8625 1.88002C12.669 1.924 12.5458 2.12531 12.5874 2.32968C12.6237 2.50721 12.7723 2.62859 12.9377 2.62859C12.9627 2.62859 12.988 2.62585 13.0135 2.62006L13.2747 2.56072C13.4683 2.51674 13.5915 2.31543 13.5498 2.11106Z"/>
</g>
<defs>
<clipPath id="clip0_2503_17620">
<rect width="18" height="19" fill="white"/>
</clipPath>
</defs>
</svg>
