<svg width="18" height="19" viewBox="0 0 18 19" fill="none" xmlns="http://www.w3.org/2000/svg">
<g clip-path="url(#clip0_2503_17618)">
<path d="M17.9516 7.27582C17.813 6.8253 17.3986 6.51558 16.815 6.42607L12.1867 5.71612L10.1168 1.28917C9.85579 0.730884 9.4487 0.410736 8.99996 0.410736C8.55122 0.410736 8.14418 0.730921 7.88317 1.28917L5.81339 5.71609L1.18499 6.42607C0.60132 6.51558 0.187067 6.82527 0.0483738 7.27578C-0.0902847 7.7263 0.0723859 8.23389 0.494689 8.66837L3.8438 12.1143L3.05316 16.9801C2.9492 17.6202 3.12579 18.0029 3.29222 18.2113C3.48692 18.455 3.77095 18.5893 4.092 18.5893C4.33476 18.5893 4.59323 18.5142 4.86018 18.3659L9 16.0686L13.1398 18.3659C13.4068 18.5141 13.6652 18.5893 13.9081 18.5893C14.2292 18.5893 14.5132 18.455 14.7079 18.2113C14.8743 18.0029 15.0509 17.6201 14.9469 16.9801L14.1562 12.1143L17.5053 8.66841C17.9276 8.23389 18.0903 7.72633 17.9516 7.27582ZM16.7691 7.87117L13.2214 11.5213C13.0971 11.6492 13.0404 11.8335 13.0697 12.0141L13.9074 17.1683C13.9344 17.3342 13.9207 17.4338 13.908 17.4759C13.8761 17.4759 13.7856 17.4665 13.6306 17.3805L9.24543 14.947C9.16858 14.9044 9.0843 14.8831 9.00003 14.8831C8.91576 14.8831 8.83146 14.9044 8.75464 14.947L4.36939 17.3805C4.21456 17.4665 4.1241 17.4759 4.09225 17.4759C4.07949 17.4338 4.06581 17.3342 4.09278 17.1683L4.93028 12.014C4.9596 11.8334 4.90289 11.6492 4.77862 11.5213L1.23094 7.8711C1.11654 7.75339 1.07221 7.66432 1.05913 7.62239C1.09306 7.5966 1.17852 7.55203 1.33669 7.52776L6.23952 6.77569C6.4113 6.74934 6.55976 6.63545 6.63658 6.47116L8.8291 1.78176C8.89977 1.63058 8.96632 1.55855 9.00007 1.53242C9.03382 1.55855 9.10041 1.63058 9.17107 1.7818L11.3636 6.47116C11.4405 6.63545 11.5889 6.74934 11.7607 6.77569L16.6634 7.52776C16.8216 7.55199 16.907 7.59656 16.941 7.62239C16.9278 7.66436 16.8835 7.75346 16.7691 7.87117Z"/>
</g>
<defs>
<clipPath id="clip0_2503_17618">
<rect width="18" height="19" fill="white"/>
</clipPath>
</defs>
</svg>
