<svg width="13" height="22" viewBox="0 0 13 22" fill="none" xmlns="http://www.w3.org/2000/svg">
<path d="M2.57603 0.428719L12.6705 10.0329C12.7903 10.1473 12.8754 10.2711 12.9257 10.4045C12.976 10.5379 13.0008 10.6808 13 10.8333C13 10.9857 12.9748 11.1287 12.9245 11.2621C12.8742 11.3954 12.7895 11.5193 12.6705 11.6336L2.57603 21.2665C2.29646 21.5332 1.947 21.6666 1.52765 21.6666C1.10829 21.6666 0.748847 21.5237 0.449308 21.2379C0.14977 20.952 3.10191e-07 20.6185 3.10191e-07 20.2374C3.10191e-07 19.8563 0.14977 19.5228 0.449308 19.237L9.25575 10.8333L0.449308 2.4296C0.169739 2.16281 0.0299537 1.83391 0.0299537 1.44288C0.0299537 1.05185 0.179723 0.713797 0.479262 0.428719C0.778801 0.142879 1.12826 -4.04736e-05 1.52765 -4.04736e-05C1.92703 -4.04736e-05 2.27649 0.142879 2.57603 0.428719Z" fill="white"/>
</svg>
