<svg width="13" height="22" viewBox="0 0 13 22" fill="none" xmlns="http://www.w3.org/2000/svg">
<path d="M10.424 0.428719L0.329511 10.0329C0.209696 10.1473 0.124627 10.2711 0.0743043 10.4045C0.0239818 10.5379 -0.000780049 10.6808 1.87212e-05 10.8333C1.87212e-05 10.9857 0.02518 11.1287 0.0755025 11.2621C0.125825 11.3954 0.210495 11.5193 0.329511 11.6336L10.424 21.2665C10.7035 21.5332 11.053 21.6666 11.4724 21.6666C11.8917 21.6666 12.2512 21.5237 12.5507 21.2379C12.8502 20.952 13 20.6185 13 20.2374C13 19.8563 12.8502 19.5228 12.5507 19.237L3.74425 10.8333L12.5507 2.4296C12.8303 2.16281 12.97 1.83391 12.97 1.44288C12.97 1.05185 12.8203 0.713797 12.5207 0.428719C12.2212 0.142879 11.8717 -4.04736e-05 11.4724 -4.04736e-05C11.073 -4.04736e-05 10.7235 0.142879 10.424 0.428719Z" fill="white"/>
</svg>
