<svg width="18" height="18" viewBox="0 0 18 18" fill="none" xmlns="http://www.w3.org/2000/svg">
<path d="M7.36875 15.525C6.08125 15.1625 5.03125 14.4532 4.21875 13.3972C3.40625 12.3412 3 11.1255 3 9.74998C3 9.03748 3.11875 8.35923 3.35625 7.71523C3.59375 7.07123 3.93125 6.48073 4.36875 5.94373C4.50625 5.79373 4.675 5.71548 4.875 5.70898C5.075 5.70248 5.25625 5.78073 5.41875 5.94373C5.55625 6.08123 5.62825 6.24998 5.63475 6.44998C5.64125 6.64998 5.5755 6.83748 5.4375 7.01248C5.1375 7.39998 4.90625 7.82498 4.74375 8.28748C4.58125 8.74998 4.5 9.23748 4.5 9.74998C4.5 10.7625 4.797 11.6657 5.391 12.4597C5.985 13.2537 6.7505 13.7942 7.6875 14.0812C7.85 14.1312 7.98425 14.225 8.09025 14.3625C8.19625 14.5 8.2495 14.65 8.25 14.8125C8.25 15.0625 8.1625 15.2595 7.9875 15.4035C7.8125 15.5475 7.60625 15.588 7.36875 15.525ZM10.6313 15.525C10.3938 15.5875 10.1875 15.5437 10.0125 15.3937C9.8375 15.2437 9.75 15.0437 9.75 14.7937C9.75 14.6437 9.80325 14.5 9.90975 14.3625C10.0163 14.225 10.1505 14.1312 10.3125 14.0812C11.25 13.7812 12.0157 13.2375 12.6097 12.45C13.2037 11.6625 13.5005 10.7625 13.5 9.74998C13.5 8.49998 13.0625 7.43748 12.1875 6.56248C11.3125 5.68748 10.25 5.24998 9 5.24998H8.94375L9.24375 5.54998C9.38125 5.68748 9.45 5.86248 9.45 6.07498C9.45 6.28748 9.38125 6.46248 9.24375 6.59998C9.10625 6.73748 8.93125 6.80623 8.71875 6.80623C8.50625 6.80623 8.33125 6.73748 8.19375 6.59998L6.61875 5.02498C6.54375 4.94998 6.49075 4.86873 6.45975 4.78123C6.42875 4.69373 6.413 4.59998 6.4125 4.49998C6.4125 4.39998 6.42825 4.30623 6.45975 4.21873C6.49125 4.13123 6.54425 4.04998 6.61875 3.97498L8.19375 2.39998C8.33125 2.26248 8.50625 2.19373 8.71875 2.19373C8.93125 2.19373 9.10625 2.26248 9.24375 2.39998C9.38125 2.53748 9.45 2.71248 9.45 2.92498C9.45 3.13748 9.38125 3.31248 9.24375 3.44998L8.94375 3.74998H9C10.675 3.74998 12.0937 4.33123 13.2562 5.49373C14.4187 6.65623 15 8.07498 15 9.74998C15 11.1125 14.5938 12.325 13.7812 13.3875C12.9687 14.45 11.9188 15.1625 10.6313 15.525Z" fill="#444444"/>
</svg>
